<?xml version="1.0" encoding="UTF-8"?>
<svg width="220px" height="56px" viewBox="0 0 220 56" version="1.1" xmlns="http://www.w3.org/2000/svg" xmlns:xlink="http://www.w3.org/1999/xlink">
    <!-- Generator: Sketch 58 (84663) - https://sketch.com -->
    <title>Shape</title>
    <desc>Created with Sketch.</desc>
    <g id="Style-Guide" stroke="none" stroke-width="1" fill="none" fill-rule="evenodd">
        <g id="2.-Logo-Pattern-1" transform="translate(-975.000000, -428.000000)" fill="#89BFDD">
            <path d="M1086.07274,428 C1101.46826,428 1113.94879,440.536027 1113.94879,456 C1113.94879,471.463973 1101.46826,484 1086.07274,484 C1070.67723,484 1058.1967,471.463973 1058.1967,456 C1058.1967,440.536027 1070.67723,428 1086.07274,428 Z M1025.04566,428 C1031.20387,428 1036.19608,433.014243 1036.19608,439.199626 C1036.19608,441.165571 1035.68086,443.096881 1034.70221,444.799439 L1015.38912,478.398317 C1012.31001,483.755015 1005.49053,485.590356 1000.15736,482.497665 C998.462284,481.514692 997.054679,480.100875 996.076026,478.398317 L976.762935,444.799439 C973.683832,439.44274 975.511108,432.593157 980.844271,429.500465 C982.539349,428.517493 984.462173,428 986.41948,428 L1025.04566,428 Z M1147.87953,429.634851 L1158.3846,440.18667 C1162.73908,444.560568 1169.79913,444.560582 1174.15365,440.186719 L1184.65877,429.634851 C1186.82892,427.45505 1190.34743,427.45505 1192.51759,429.634851 C1194.68774,431.814652 1194.68774,435.348807 1192.51759,437.528608 L1177.28168,452.832138 C1175.53985,454.581661 1175.53984,457.41824 1177.28164,459.167796 L1192.51759,474.471392 C1194.68774,476.651193 1194.68774,480.185348 1192.51759,482.365149 C1190.34743,484.54495 1186.82892,484.54495 1184.65877,482.365149 L1174.15364,471.813257 C1169.79918,467.439328 1162.73913,467.439314 1158.38461,471.813177 L1147.87953,482.365149 C1145.70938,484.54495 1142.19087,484.54495 1140.02072,482.365149 C1137.85057,480.185348 1137.85057,476.651193 1140.02072,474.471392 L1155.25656,459.167802 C1156.99837,457.41826 1156.99838,454.581681 1155.25657,452.832132 L1140.02072,437.528608 C1137.85057,435.348807 1137.85057,431.814652 1140.02072,429.634851 C1142.19087,427.45505 1145.70938,427.45505 1147.87953,429.634851 Z M1086.07274,439.2 C1076.83544,439.2 1069.34712,446.721616 1069.34712,456 C1069.34712,465.278384 1076.83544,472.8 1086.07274,472.8 C1095.31005,472.8 1102.79837,465.278384 1102.79837,456 C1102.79837,446.721616 1095.31005,439.2 1086.07274,439.2 Z M1017.32043,439.08763 L994.144717,439.08763 C993.361794,439.08763 992.592664,439.294627 991.914633,439.687816 C989.781368,440.924892 989.050457,443.664726 990.282098,445.807405 L1001.86995,465.966732 C1002.26141,466.647755 1002.82446,467.213282 1003.50249,467.606471 C1005.63575,468.843548 1008.36355,468.109411 1009.59519,465.966732 L1021.18304,445.807405 C1021.57451,445.126382 1021.78059,444.353858 1021.78059,443.56748 C1021.78059,441.093327 1019.78371,439.08763 1017.32043,439.08763 Z" id="Shape"></path>
        </g>
    </g>
</svg>