<?xml version="1.0" encoding="UTF-8"?>
<svg width="219px" height="56px" viewBox="0 0 219 56" version="1.1" xmlns="http://www.w3.org/2000/svg" xmlns:xlink="http://www.w3.org/1999/xlink">
    <!-- Generator: Sketch 58 (84663) - https://sketch.com -->
    <title>Shape</title>
    <desc>Created with Sketch.</desc>
    <defs>
        <linearGradient x1="50%" y1="0%" x2="50%" y2="100%" id="linearGradient-1">
            <stop stop-color="#6BD1EB" offset="0%"></stop>
            <stop stop-color="#328BC8" offset="100%"></stop>
        </linearGradient>
    </defs>
    <g id="Page-1" stroke="none" stroke-width="1" fill="none" fill-rule="evenodd">
        <g id="2.-Logo-Pattern-1" transform="translate(-548.000000, -443.000000)" fill="url(#linearGradient-1)">
            <path d="M658.805544,443 C674.20106,443 686.68159,455.536027 686.68159,471 C686.68159,486.463973 674.20106,499 658.805544,499 C643.410029,499 630.929498,486.463973 630.929498,471 C630.929498,455.536027 643.410029,443 658.805544,443 Z M597.778463,443 C603.936669,443 608.928881,448.014243 608.928881,454.199626 C608.928881,456.165571 608.413662,458.096881 607.435008,459.799439 L588.121917,493.398317 C585.042814,498.755015 578.223325,500.590356 572.890162,497.497665 C571.195085,496.514692 569.78748,495.100875 568.808826,493.398317 L549.495735,459.799439 C546.416632,454.44274 548.243908,447.593157 553.577071,444.500465 C555.272149,443.517493 557.194973,443 559.15228,443 L597.778463,443 Z M720.612332,444.634851 L731.117396,455.18667 C735.471879,459.560568 742.531934,459.560582 746.886452,455.186719 L757.391573,444.634851 C759.561724,442.45505 763.080234,442.45505 765.250385,444.634851 C767.420536,446.814652 767.420536,450.348807 765.250385,452.528608 L750.01448,467.832138 C748.27265,469.581661 748.272639,472.41824 750.014436,474.167796 L765.250385,489.471392 C767.420536,491.651193 767.420536,495.185348 765.250385,497.365149 C763.080234,499.54495 759.561724,499.54495 757.391573,497.365149 L746.886437,486.813257 C742.531984,482.439328 735.47193,482.439314 731.117411,486.813177 L720.612332,497.365149 C718.442181,499.54495 714.923671,499.54495 712.75352,497.365149 C710.583369,495.185348 710.583369,491.651193 712.75352,489.471392 L727.989364,474.167802 C729.731175,472.41826 729.731175,469.581681 727.989372,467.832132 L712.75352,452.528608 C710.583369,450.348807 710.583369,446.814652 712.75352,444.634851 C714.923671,442.45505 718.442181,442.45505 720.612332,444.634851 Z M658.805544,454.2 C649.568235,454.2 642.079917,461.721616 642.079917,471 C642.079917,480.278384 649.568235,487.8 658.805544,487.8 C668.042853,487.8 675.531172,480.278384 675.531172,471 C675.531172,461.721616 668.042853,454.2 658.805544,454.2 Z M590.053226,454.08763 L566.877517,454.08763 C566.094594,454.08763 565.325464,454.294627 564.647433,454.687816 C562.514168,455.924892 561.783257,458.664726 563.014899,460.807405 L574.602753,480.966732 C574.994215,481.647755 575.557257,482.213282 576.235288,482.606471 C578.368553,483.843548 581.096349,483.109411 582.32799,480.966732 L593.915845,460.807405 C594.307306,460.126382 594.513394,459.353858 594.513394,458.56748 C594.513394,456.093327 592.516509,454.08763 590.053226,454.08763 Z" id="Shape"></path>
        </g>
    </g>
</svg>