<?xml version="1.0" encoding="UTF-8"?>
<svg width="149px" height="38px" viewBox="0 0 149 38" version="1.1" xmlns="http://www.w3.org/2000/svg" xmlns:xlink="http://www.w3.org/1999/xlink">
    <!-- Generator: Sketch 58 (84663) - https://sketch.com -->
    <title>Shape</title>
    <desc>Created with Sketch.</desc>
    <g id="Style-Guide" stroke="none" stroke-width="1" fill="none" fill-rule="evenodd">
        <g id="7.-Logo-Grid" transform="translate(-787.000000, -565.000000)" fill="#FFFFFF">
            <path d="M862.189477,565 C872.636433,565 881.105365,573.50659 881.105365,584 C881.105365,594.49341 872.636433,603 862.189477,603 C851.74252,603 843.273588,594.49341 843.273588,584 C843.273588,573.50659 851.74252,565 862.189477,565 Z M820.778243,565 C824.957025,565 828.344598,568.402522 828.344598,572.599746 C828.344598,573.93378 827.994985,575.244312 827.330899,576.399619 L814.225587,599.198858 C812.136195,602.83376 807.508685,604.07917 803.889753,601.980558 C802.739522,601.313541 801.784361,600.354165 801.120275,599.198858 L788.014963,576.399619 C785.925571,572.764717 787.165509,568.116785 790.784441,566.018173 C791.934672,565.351156 793.239446,565 794.567619,565 L820.778243,565 Z M904.129797,566.109363 L911.258233,573.269526 C914.213061,576.237528 919.003812,576.237538 921.958664,573.269559 L929.087139,566.109363 C930.559741,564.630212 932.947302,564.630212 934.419904,566.109363 C935.892507,567.588514 935.892507,569.986691 934.419904,571.465841 L924.081254,581.850379 C922.899299,583.037555 922.899291,584.962377 924.081224,586.149576 L934.419904,596.534159 C935.892507,598.013309 935.892507,600.411486 934.419904,601.890637 C932.947302,603.369788 930.559741,603.369788 929.087139,601.890637 L921.958653,594.730425 C919.003846,591.762401 914.213095,591.762391 911.258243,594.73037 L904.129797,601.890637 C902.657194,603.369788 900.269634,603.369788 898.797031,601.890637 C897.324429,600.411486 897.324429,598.013309 898.797031,596.534159 L909.13564,586.14958 C910.317583,584.962391 910.317583,583.037569 909.135645,581.850375 L898.797031,571.465841 C897.324429,569.986691 897.324429,567.588514 898.797031,566.109363 C900.269634,564.630212 902.657194,564.630212 904.129797,566.109363 Z M862.189477,572.6 C855.921303,572.6 850.839943,577.703954 850.839943,584 C850.839943,590.296046 855.921303,595.4 862.189477,595.4 C868.457651,595.4 873.53901,590.296046 873.53901,584 C873.53901,577.703954 868.457651,572.6 862.189477,572.6 Z M815.536118,572.523749 L799.809744,572.523749 C799.278474,572.523749 798.756565,572.664211 798.296472,572.931018 C796.8489,573.770463 796.352925,575.629635 797.188681,577.083596 L805.051868,590.76314 C805.317503,591.225263 805.699567,591.609013 806.15966,591.87582 C807.607232,592.715264 809.458237,592.217101 810.293993,590.76314 L818.15718,577.083596 C818.422815,576.621474 818.56266,576.097261 818.56266,575.563647 C818.56266,573.884758 817.207631,572.523749 815.536118,572.523749 Z" id="Shape"></path>
        </g>
    </g>
</svg>