<?xml version="1.0" encoding="UTF-8"?>
<svg width="149px" height="38px" viewBox="0 0 149 38" version="1.1" xmlns="http://www.w3.org/2000/svg" xmlns:xlink="http://www.w3.org/1999/xlink">
    <defs>
        <linearGradient x1="50.783596%" y1="0%" x2="50.783596%" y2="100%" id="linearGradient-1">
            <stop stop-color="#85CFE8" offset="0%"></stop>
            <stop stop-color="#4C8AC3" offset="100%"></stop>
        </linearGradient>
    </defs>
    <g id="Style-Guide" stroke="none" stroke-width="1" fill="none" fill-rule="evenodd">
        <g id="7.-Logo-Grid" transform="translate(-360.000000, -255.000000)" fill="url(#linearGradient-1)">
            <path d="M435.66512,255 C446.112077,255 454.581009,263.50659 454.581009,274 C454.581009,284.49341 446.112077,293 435.66512,293 C425.218164,293 416.749232,284.49341 416.749232,274 C416.749232,263.50659 425.218164,255 435.66512,255 Z M394.253887,255 C398.432669,255 401.820242,258.402522 401.820242,262.599746 C401.820242,263.93378 401.470629,265.244312 400.806542,266.399619 L387.701231,289.198858 C385.611839,292.83376 380.984329,294.07917 377.365397,291.980558 C376.215166,291.313541 375.260005,290.354165 374.595919,289.198858 L361.490607,266.399619 C359.401215,262.764717 360.641153,258.116785 364.260085,256.018173 C365.410316,255.351156 366.71509,255 368.043263,255 L394.253887,255 Z M477.60544,256.109363 L484.733877,263.269526 C487.688705,266.237528 492.479456,266.237538 495.434308,263.269559 L502.562783,256.109363 C504.035385,254.630212 506.422946,254.630212 507.895548,256.109363 C509.368151,257.588514 509.368151,259.986691 507.895548,261.465841 L497.556898,271.850379 C496.374942,273.037555 496.374935,274.962377 497.556868,276.149576 L507.895548,286.534159 C509.368151,288.013309 509.368151,290.411486 507.895548,291.890637 C506.422946,293.369788 504.035385,293.369788 502.562783,291.890637 L495.434297,284.730425 C492.47949,281.762401 487.688739,281.762391 484.733887,284.73037 L477.60544,291.890637 C476.132838,293.369788 473.745278,293.369788 472.272675,291.890637 C470.800073,290.411486 470.800073,288.013309 472.272675,286.534159 L482.611284,276.14958 C483.793227,274.962391 483.793227,273.037569 482.611289,271.850375 L472.272675,261.465841 C470.800073,259.986691 470.800073,257.588514 472.272675,256.109363 C473.745278,254.630212 476.132838,254.630212 477.60544,256.109363 Z M435.66512,262.6 C429.396946,262.6 424.315587,267.703954 424.315587,274 C424.315587,280.296046 429.396946,285.4 435.66512,285.4 C441.933294,285.4 447.014653,280.296046 447.014653,274 C447.014653,267.703954 441.933294,262.6 435.66512,262.6 Z M389.011762,262.523749 L373.285387,262.523749 C372.754118,262.523749 372.232209,262.664211 371.772116,262.931018 C370.324544,263.770463 369.828568,265.629635 370.664325,267.083596 L378.527512,280.76314 C378.793147,281.225263 379.175211,281.609013 379.635303,281.87582 C381.082876,282.715264 382.93388,282.217101 383.769637,280.76314 L391.632824,267.083596 C391.898459,266.621474 392.038304,266.097261 392.038304,265.563647 C392.038304,263.884758 390.683275,262.523749 389.011762,262.523749 Z" id="Shape"></path>
        </g>
    </g>
</svg>