<?xml version="1.0" encoding="UTF-8"?>
<svg width="189px" height="186px" viewBox="0 0 189 186" version="1.1" xmlns="http://www.w3.org/2000/svg" xmlns:xlink="http://www.w3.org/1999/xlink">
    <!-- Generator: Sketch 58 (84663) - https://sketch.com -->
    <title>Shape</title>
    <desc>Created with Sketch.</desc>
    <g id="Style-Guide" stroke="none" stroke-width="1" fill="none" fill-rule="evenodd">
        <g id="2.-Logo-Pattern-1" transform="translate(-417.000000, -170.000000)" fill="#F9FBFC">
            <path d="M458.715701,279.804419 C479.618459,279.804419 496.563492,296.749452 496.563492,317.652209 C496.563492,338.554967 479.618459,355.5 458.715701,355.5 C437.812944,355.5 420.867911,338.554967 420.867911,317.652209 C420.867911,296.749452 437.812944,279.804419 458.715701,279.804419 Z M603.506681,281.862867 C606.453132,284.809318 606.453132,289.58646 603.506681,292.532912 L582.820629,313.218798 C580.482899,315.556457 580.456014,319.329914 582.739959,321.700623 L582.82062,321.782749 L603.506681,342.468725 C606.453132,345.415176 606.453132,350.192318 603.506681,353.13877 C600.560229,356.085222 595.783087,356.085222 592.836635,353.13877 L578.57363,338.875706 C572.720635,333.022559 563.2673,332.964008 557.342212,338.700005 L557.163751,338.875727 L542.900823,353.13877 C539.954371,356.085222 535.177229,356.085222 532.230777,353.13877 C529.284326,350.192318 529.284326,345.415176 532.230777,342.468725 L552.916748,321.782758 C555.254451,319.445072 555.281322,315.671615 552.997368,313.300915 L552.916739,313.218789 L532.230777,292.532912 C529.284326,289.58646 529.284326,284.809318 532.230777,281.862867 C535.177229,278.916415 539.954371,278.916415 542.900823,281.862867 L557.16373,296.125832 C563.016766,301.978938 572.470102,302.037488 578.39519,296.301491 L578.573651,296.125853 L592.836635,281.862867 C595.783087,278.916415 600.560229,278.916415 603.506681,281.862867 Z M458.715701,294.943535 C446.174047,294.943535 436.007027,305.110555 436.007027,317.652209 C436.007027,330.193864 446.174047,340.360884 458.715701,340.360884 C471.257356,340.360884 481.424375,330.193864 481.424375,317.652209 C481.424375,305.110555 471.257356,294.943535 458.715701,294.943535 Z M584.521757,170.954173 C596.227301,170.954173 605.71652,180.443392 605.71652,192.148936 L605.71652,225.454992 C605.71652,237.160536 596.227301,246.649755 584.521757,246.649755 L551.215701,246.649755 C539.510157,246.649755 530.020939,237.160536 530.020939,225.454992 L530.020939,192.148936 C530.020939,180.443392 539.510157,170.954173 551.215701,170.954173 L584.521757,170.954173 Z M485.011204,170.5 C493.372307,170.5 500.15032,177.278013 500.15032,185.639116 C500.15032,188.296586 499.450798,190.907238 498.122063,193.208674 L471.900344,238.626023 C467.719793,245.866951 458.460855,248.347876 451.219927,244.167324 C448.918491,242.838589 447.007361,240.927459 445.678626,238.626023 L419.456908,193.208674 C415.276356,185.967747 417.757281,176.708808 424.998209,172.528257 C427.299645,171.199522 429.910297,170.5 432.567767,170.5 L485.011204,170.5 Z M579.980022,186.244681 L555.757436,186.244681 C549.904664,186.244681 545.160055,190.98929 545.160055,196.842062 L545.160055,221.064648 C545.160055,226.91742 549.904664,231.662029 555.757436,231.662029 L579.980022,231.662029 C585.832794,231.662029 590.577403,226.91742 590.577403,221.064648 L590.577403,196.842062 C590.577403,190.98929 585.832794,186.244681 579.980022,186.244681 Z M474.522516,185.487725 L443.056454,185.487725 C441.993466,185.487725 440.949206,185.767534 440.028631,186.299028 C437.13226,187.971248 436.13989,191.674824 437.81211,194.571195 L453.545142,221.821604 C454.076636,222.742179 454.841087,223.50663 455.761662,224.038124 C458.658033,225.710345 462.361608,224.717975 464.033829,221.821604 L479.76686,194.571195 C480.298354,193.65062 480.578163,192.60636 480.578163,191.543372 C480.578163,188.19893 477.866957,185.487725 474.522516,185.487725 Z" id="Shape"></path>
        </g>
    </g>
</svg>