<?xml version="1.0" encoding="UTF-8"?>
<svg width="356px" height="92px" viewBox="0 0 356 92" version="1.1" xmlns="http://www.w3.org/2000/svg" xmlns:xlink="http://www.w3.org/1999/xlink">
    <!-- Generator: Sketch 58 (84663) - https://sketch.com -->
    <title>Shape</title>
    <desc>Created with Sketch.</desc>
    <defs>
        <linearGradient x1="50%" y1="0%" x2="50%" y2="100%" id="linearGradient-1">
            <stop stop-color="#6BD1EB" offset="0%"></stop>
            <stop stop-color="#2178BE" offset="100%"></stop>
        </linearGradient>
    </defs>
    <g id="Page-1" stroke="none" stroke-width="1" fill="none" fill-rule="evenodd">
        <g id="2.-Logo-Pattern-1" transform="translate(-272.000000, -554.000000)" fill="url(#linearGradient-1)">
            <path d="M452.220636,554.5 C477.238348,554.5 497.519211,574.871044 497.519211,600 C497.519211,625.128956 477.238348,645.5 452.220636,645.5 C427.202924,645.5 406.922061,625.128956 406.922061,600 C406.922061,574.871044 427.202924,554.5 452.220636,554.5 Z M353.051628,554.5 C363.058713,554.5 371.171058,562.648145 371.171058,572.699392 C371.171058,575.894053 370.333827,579.032431 368.743515,581.799088 L337.359742,636.397265 C332.356199,645.1019 321.27453,648.084328 312.60814,643.058705 C309.853639,641.461375 307.56628,639.163922 305.975968,636.397265 L274.592195,581.799088 C269.588653,573.094453 272.557977,561.96388 281.224367,556.938256 C283.978868,555.340926 287.103457,554.5 290.284082,554.5 L353.051628,554.5 Z M552.656665,557.156632 L569.727394,574.303339 C576.80343,581.410923 588.276019,581.410946 595.352111,574.303419 L612.422932,557.156632 C615.949428,553.614456 621.667007,553.614456 625.193502,557.156632 C628.719998,560.698809 628.719998,566.441811 625.193502,569.983988 L600.435157,594.852224 C597.604683,597.695198 597.604665,602.304639 600.435084,605.147668 L625.193502,630.016012 C628.719998,633.558189 628.719998,639.301191 625.193502,642.843368 C621.667007,646.385544 615.949428,646.385544 612.422932,642.843368 L595.352086,625.696543 C588.2761,618.588908 576.803512,618.588885 569.72742,625.696412 L552.656665,642.843368 C549.13017,646.385544 543.412591,646.385544 539.886096,642.843368 C536.3596,639.301191 536.3596,633.558189 539.886096,630.016012 L564.644343,605.147678 C567.474786,602.304672 567.474786,597.695231 564.644355,594.852214 L539.886096,569.983988 C536.3596,566.441811 536.3596,560.698809 539.886096,557.156632 C543.412591,553.614456 549.13017,553.614456 552.656665,557.156632 Z M452.220636,572.7 C437.210009,572.7 425.041491,584.922626 425.041491,600 C425.041491,615.077374 437.210009,627.3 452.220636,627.3 C467.231263,627.3 479.399781,615.077374 479.399781,600 C479.399781,584.922626 467.231263,572.7 452.220636,572.7 Z M340.498119,572.517398 L302.837591,572.517398 C301.565341,572.517398 300.315506,572.853769 299.213705,573.492701 C295.747149,575.50295 294.559419,579.95518 296.560836,583.437034 L315.3911,616.19594 C316.027225,617.302603 316.942168,618.221583 318.043969,618.860516 C321.510525,620.870765 325.943193,619.677794 327.94461,616.19594 L346.774874,583.437034 C347.410999,582.330371 347.745891,581.075019 347.745891,579.797155 C347.745891,575.776656 344.500953,572.517398 340.498119,572.517398 Z" id="Shape"></path>
        </g>
    </g>
</svg>