<?xml version="1.0" standalone="no"?>
<!DOCTYPE svg PUBLIC "-//W3C//DTD SVG 1.1//EN" "http://www.w3.org/Graphics/SVG/1.1/DTD/svg11.dtd" >
<svg>
<metadata>
Created by FontForge 20120731 at Sun Sep 29 06:20:40 2019
 By www-data
</metadata>
<defs>
<font id="TazuganeGothicStdN-Regular-AlphaNum" horiz-adv-x="1000" vert-adv-y="1000" >
  <font-face 
    font-family="(null)"
    font-weight="400"
    font-stretch="normal"
    units-per-em="1000"
    panose-1="2 0 5 3 0 0 0 0 0 0"
    ascent="800"
    descent="-200"
    x-height="535"
    cap-height="738"
    bbox="16 -100 982 860"
    underline-thickness="50"
    underline-position="-100"
    stemh="38"
    stemv="62"
    unicode-range="U+2160-1F100"
  />
    <missing-glyph />
    <glyph glyph-name="uni2460" unicode="&#x2460;" 
d="M500 -93c-261 0 -473 212 -473 473s212 473 473 473c260 0 472 -212 472 -473s-212 -473 -472 -473zM934 380c0 240 -194 435 -434 435c-241 0 -435 -195 -435 -435s194 -435 435 -435c240 0 434 195 434 435zM465 85v325c0 50 3 128 4 159h-1c-14 -13 -36 -34 -67 -59
l-30 -25l-51 65l155 123h88v-588h-98z" />
    <glyph glyph-name="uni2461" unicode="&#x2461;" 
d="M500 -93c-261 0 -473 212 -473 473s212 473 473 473c260 0 472 -212 472 -473s-212 -473 -472 -473zM934 380c0 240 -194 435 -434 435c-241 0 -435 -195 -435 -435s194 -435 435 -435c240 0 434 195 434 435zM316 85v91c193 163 270 247 270 332c0 67 -49 97 -112 97
c-43 0 -87 -13 -135 -41l-11 85c47 22 104 35 166 35c111 0 195 -58 195 -167c0 -74 -39 -142 -151 -251c-48 -47 -89 -78 -124 -103v-2c52 2 125 3 176 3h112v-79h-386z" />
    <glyph glyph-name="uni2462" unicode="&#x2462;" 
d="M500 -93c-261 0 -473 212 -473 473s212 473 473 473c260 0 472 -212 472 -473s-212 -473 -472 -473zM934 380c0 240 -194 435 -434 435c-241 0 -435 -195 -435 -435s194 -435 435 -435c240 0 434 195 434 435zM710 244c0 -102 -90 -170 -228 -170c-49 0 -101 7 -151 23
l5 85c54 -23 97 -33 143 -33c74 0 131 34 131 103c0 67 -60 100 -170 100c-7 0 -18 0 -27 -1v75h25c105 0 170 31 170 94c0 58 -50 89 -119 89c-45 0 -87 -10 -134 -31l-6 80c48 18 101 26 150 26c126 0 204 -59 204 -155c0 -77 -60 -127 -145 -136v-2
c88 -8 152 -63 152 -147z" />
    <glyph glyph-name="uni2463" unicode="&#x2463;" 
d="M500 -93c-261 0 -473 212 -473 473s212 473 473 473c260 0 472 -212 472 -473s-212 -473 -472 -473zM934 380c0 240 -194 435 -434 435c-241 0 -435 -195 -435 -435s194 -435 435 -435c240 0 434 195 434 435zM528 85v126h-276v79l241 383h127v-385h80v-77h-80v-126h-92z
M528 428c0 50 1 115 4 179h-1c-18 -35 -52 -96 -74 -133l-114 -186h185v140z" />
    <glyph glyph-name="uni2464" unicode="&#x2464;" 
d="M500 -93c-261 0 -473 212 -473 473s212 473 473 473c260 0 472 -212 472 -473s-212 -473 -472 -473zM934 380c0 240 -194 435 -434 435c-241 0 -435 -195 -435 -435s194 -435 435 -435c240 0 434 195 434 435zM343 177c43 -19 84 -27 123 -27c81 0 141 42 141 118
c0 77 -55 115 -143 115c-38 0 -78 -8 -118 -21l5 311h334v-77h-246l-6 -147c24 6 43 7 68 7c118 0 204 -69 204 -181c0 -123 -93 -201 -235 -201c-40 0 -87 6 -129 18z" />
    <glyph glyph-name="uni2465" unicode="&#x2465;" 
d="M500 -93c-261 0 -473 212 -473 473s212 473 473 473c260 0 472 -212 472 -473s-212 -473 -472 -473zM934 380c0 240 -194 435 -434 435c-241 0 -435 -195 -435 -435s194 -435 435 -435c240 0 434 195 434 435zM650 588c-37 15 -69 21 -104 21c-102 0 -164 -80 -168 -214
h2c29 43 87 66 140 66c108 0 177 -79 177 -184c0 -113 -74 -203 -201 -203c-138 0 -211 100 -211 285c0 206 93 325 256 325c42 0 81 -5 118 -17zM495 145c67 0 106 56 106 123c0 68 -31 122 -105 122c-59 0 -108 -52 -108 -116c0 -72 47 -129 107 -129z" />
    <glyph glyph-name="uni2466" unicode="&#x2466;" 
d="M500 -93c-261 0 -473 212 -473 473s212 473 473 473c260 0 472 -212 472 -473s-212 -473 -472 -473zM934 380c0 240 -194 435 -434 435c-241 0 -435 -195 -435 -435s194 -435 435 -435c240 0 434 195 434 435zM384 85l224 508h-288v80h387v-82l-217 -506h-106z" />
    <glyph glyph-name="uni2467" unicode="&#x2467;" 
d="M500 -93c-261 0 -473 212 -473 473s212 473 473 473c260 0 472 -212 472 -473s-212 -473 -472 -473zM934 380c0 240 -194 435 -434 435c-241 0 -435 -195 -435 -435s194 -435 435 -435c240 0 434 195 434 435zM582 399c92 -33 134 -80 134 -155
c0 -106 -94 -169 -217 -169c-125 0 -209 61 -209 164c0 72 42 120 130 156c-87 35 -117 76 -117 139c0 91 79 150 200 150c114 0 193 -55 193 -146c0 -63 -38 -105 -114 -139zM512 430c57 25 85 55 85 100c0 56 -42 85 -97 85c-53 0 -101 -30 -101 -81
c0 -55 45 -81 113 -104zM490 357c-67 -23 -101 -60 -101 -114c0 -59 46 -95 111 -95c64 0 116 35 116 94c0 57 -46 89 -126 115z" />
    <glyph glyph-name="uni2468" unicode="&#x2468;" 
d="M500 -93c-261 0 -473 212 -473 473s212 473 473 473c260 0 472 -212 472 -473s-212 -473 -472 -473zM934 380c0 240 -194 435 -434 435c-241 0 -435 -195 -435 -435s194 -435 435 -435c240 0 434 195 434 435zM353 176c38 -17 73 -25 111 -25c105 0 165 84 168 218h-3
c-28 -44 -85 -66 -138 -66c-109 0 -176 74 -176 179c0 113 73 202 200 202c137 0 210 -95 210 -280c0 -205 -91 -327 -256 -327c-45 0 -86 6 -126 19zM621 488c0 73 -44 126 -103 126c-68 0 -107 -55 -107 -123c0 -67 35 -116 106 -116c62 0 104 49 104 113z" />
    <glyph glyph-name="uni2469" unicode="&#x2469;" 
d="M500 -93c-261 0 -473 212 -473 473s212 473 473 473c260 0 472 -212 472 -473s-212 -473 -472 -473zM934 380c0 240 -194 435 -434 435c-241 0 -435 -195 -435 -435s194 -435 435 -435c240 0 434 195 434 435zM646 78c-110 0 -168 106 -168 299c0 196 52 302 168 302
c111 0 165 -105 165 -300c0 -194 -56 -301 -165 -301zM303 85v300c0 59 1 149 2 196h-1c-23 -23 -44 -39 -61 -51l-29 -24l-43 60l141 107h78v-588h-87zM644 155c51 0 78 76 78 224c0 156 -25 226 -78 226c-52 0 -79 -71 -79 -228c0 -148 27 -222 79 -222z" />
    <glyph glyph-name="uni246A" unicode="&#x246a;" 
d="M500 -93c-261 0 -473 212 -473 473s212 473 473 473c260 0 472 -212 472 -473s-212 -473 -472 -473zM934 380c0 240 -194 435 -434 435c-241 0 -435 -195 -435 -435s194 -435 435 -435c240 0 434 195 434 435zM340 85v300c0 59 1 149 2 196h-1c-23 -23 -44 -39 -61 -51
l-30 -24l-42 60l141 107h78v-588h-87zM633 85v300c0 59 1 149 2 196h-1c-23 -23 -44 -39 -61 -51l-30 -24l-42 60l141 107h78v-588h-87z" />
    <glyph glyph-name="uni246B" unicode="&#x246b;" 
d="M500 -93c-261 0 -473 212 -473 473s212 473 473 473c260 0 472 -212 472 -473s-212 -473 -472 -473zM934 380c0 240 -194 435 -434 435c-241 0 -435 -195 -435 -435s194 -435 435 -435c240 0 434 195 434 435zM478 86v75c122 126 206 237 206 338c0 68 -32 97 -88 97
c-29 0 -61 -8 -95 -27l-8 83c37 19 83 29 123 29c86 0 158 -44 158 -163c0 -96 -39 -168 -99 -248c-33 -42 -73 -79 -99 -102v-2c28 1 67 3 98 3h105v-83h-301zM309 85v300c0 59 1 149 2 196h-1c-23 -23 -44 -39 -61 -51l-30 -24l-42 60l141 107h78v-588h-87z" />
    <glyph glyph-name="uni246C" unicode="&#x246c;" 
d="M500 -93c-261 0 -473 212 -473 473s212 473 473 473c260 0 472 -212 472 -473s-212 -473 -472 -473zM934 380c0 240 -194 435 -434 435c-241 0 -435 -195 -435 -435s194 -435 435 -435c240 0 434 195 434 435zM486 174c33 -14 65 -20 97 -20c62 0 111 29 111 100
c0 70 -43 97 -116 97c-9 0 -23 0 -32 -1v73c13 -1 26 -2 36 -2c63 0 107 32 107 97c0 61 -40 87 -93 87c-36 0 -64 -8 -97 -22l-6 74c40 16 78 23 120 23c92 0 165 -46 165 -147c0 -83 -49 -123 -104 -140v-1c62 -14 109 -51 109 -140c0 -114 -80 -173 -190 -173
c-38 0 -76 4 -110 16zM309 85v300c0 59 1 149 2 196h-1c-23 -23 -44 -39 -61 -51l-30 -24l-42 60l141 107h78v-588h-87z" />
    <glyph glyph-name="uni246D" unicode="&#x246d;" 
d="M500 -93c-261 0 -473 212 -473 473s212 473 473 473c260 0 472 -212 472 -473s-212 -473 -472 -473zM934 380c0 240 -194 435 -434 435c-241 0 -435 -195 -435 -435s194 -435 435 -435c240 0 434 195 434 435zM300 85v300c0 59 1 149 3 196h-2c-23 -23 -44 -39 -61 -51
l-29 -24l-43 60l141 107h78v-588h-87zM661 85v130h-202v78l177 380h109v-385h65v-73h-65v-130h-84zM663 384c0 52 1 123 4 195h-1c-24 -55 -57 -130 -77 -171l-55 -120h129v96z" />
    <glyph glyph-name="uni246E" unicode="&#x246e;" 
d="M500 -93c-261 0 -473 212 -473 473s212 473 473 473c260 0 472 -212 472 -473s-212 -473 -472 -473zM934 380c0 240 -194 435 -434 435c-241 0 -435 -195 -435 -435s194 -435 435 -435c240 0 434 195 434 435zM310 85v300c0 59 1 149 2 196h-1c-23 -23 -44 -39 -61 -51
l-30 -24l-42 60l141 107h78v-588h-87zM500 168c28 -9 54 -14 89 -14c74 0 111 45 111 119c0 70 -33 107 -107 107c-31 0 -56 -5 -86 -14l3 306h256v-75h-185l-1 -151c19 4 33 6 54 6c99 0 154 -65 154 -175c0 -132 -80 -198 -191 -198c-38 0 -71 3 -101 11z" />
    <glyph glyph-name="uni246F" unicode="&#x246f;" 
d="M500 -93c-261 0 -473 212 -473 473s212 473 473 473c260 0 472 -212 472 -473s-212 -473 -472 -473zM934 380c0 240 -194 435 -434 435c-241 0 -435 -195 -435 -435s194 -435 435 -435c240 0 434 195 434 435zM557 395c20 32 54 58 107 58c81 0 131 -63 131 -173
c0 -122 -64 -201 -161 -201c-119 0 -168 104 -168 266c0 187 57 335 212 335c30 0 65 -4 93 -13l-8 -73c-27 10 -51 14 -78 14c-95 0 -127 -95 -130 -213h2zM294 85v300c0 59 1 149 2 196h-1c-24 -23 -45 -39 -61 -51l-30 -24l-43 60l141 107h79v-588h-87zM633 149
c53 0 75 57 75 121c0 71 -24 114 -72 114c-43 0 -77 -45 -77 -108c0 -69 22 -127 74 -127z" />
    <glyph glyph-name="uni2470" unicode="&#x2470;" 
d="M500 -93c-261 0 -473 212 -473 473s212 473 473 473c260 0 472 -212 472 -473s-212 -473 -472 -473zM934 380c0 240 -194 435 -434 435c-241 0 -435 -195 -435 -435s194 -435 435 -435c240 0 434 195 434 435zM322 85v300c0 59 1 149 2 196h-1c-23 -23 -44 -39 -61 -51
l-30 -24l-42 60l141 107h78v-588h-87zM536 85l162 509h-202v79h289v-79l-160 -509h-89z" />
    <glyph glyph-name="uni2471" unicode="&#x2471;" 
d="M500 -93c-261 0 -473 212 -473 473s212 473 473 473c260 0 472 -212 472 -473s-212 -473 -472 -473zM934 380c0 240 -194 435 -434 435c-241 0 -435 -195 -435 -435s194 -435 435 -435c240 0 434 195 434 435zM700 394c66 -39 104 -81 104 -156
c0 -105 -70 -159 -165 -159s-163 54 -163 155c0 79 42 121 102 153c-56 34 -88 74 -88 146c0 94 67 147 153 147c83 0 147 -48 147 -141c0 -72 -37 -116 -90 -145zM302 85v300c0 59 1 149 2 196h-1c-23 -23 -44 -39 -61 -51l-30 -24l-42 60l141 107h78v-588h-87zM642 423
c44 22 69 56 69 107c0 50 -24 82 -69 82c-48 0 -72 -34 -72 -85c0 -54 27 -81 72 -104zM637 352c-44 -24 -74 -62 -74 -113c0 -59 29 -91 76 -91c46 0 79 31 79 89c0 48 -22 84 -81 115z" />
    <glyph glyph-name="uni2472" unicode="&#x2472;" 
d="M500 -93c-261 0 -473 212 -473 473s212 473 473 473c260 0 472 -212 472 -473s-212 -473 -472 -473zM934 380c0 240 -194 435 -434 435c-241 0 -435 -195 -435 -435s194 -435 435 -435c240 0 434 195 434 435zM513 164c26 -10 50 -13 77 -13c95 0 127 95 130 213h-2
c-20 -33 -54 -58 -107 -58c-81 0 -131 63 -131 173c0 122 64 201 161 201c120 0 168 -104 168 -266c0 -188 -57 -335 -212 -335c-30 0 -65 4 -92 13zM303 85v300c0 59 1 149 2 196h-1c-23 -23 -44 -39 -61 -51l-30 -24l-42 60l141 107h78v-588h-87zM716 483
c0 69 -22 127 -74 127c-53 0 -75 -58 -75 -121c0 -71 25 -114 72 -114c44 0 77 45 77 108z" />
    <glyph glyph-name="uni2473" unicode="&#x2473;" 
d="M500 -93c-261 0 -473 212 -473 473s212 473 473 473c260 0 472 -212 472 -473s-212 -473 -472 -473zM934 380c0 240 -194 435 -434 435c-241 0 -435 -195 -435 -435s194 -435 435 -435c240 0 434 195 434 435zM195 86v75c119 126 202 237 202 338c0 67 -33 97 -87 97
c-29 0 -59 -8 -93 -27l-7 83c36 19 81 29 119 29c85 0 156 -44 156 -163c0 -96 -38 -168 -98 -248c-32 -42 -69 -79 -95 -102v-2c27 1 65 3 96 3h102v-83h-295zM694 78c-108 0 -166 106 -166 299c0 196 52 302 167 302c108 0 161 -105 161 -300c0 -194 -55 -301 -162 -301z
M692 155c51 0 76 76 76 224c0 156 -23 226 -76 226c-50 0 -77 -71 -77 -228c0 -148 27 -222 77 -222z" />
    <glyph glyph-name="uni2160" unicode="&#x2160;" 
d="M445 -16v754h110v-754h-110z" />
    <glyph glyph-name="uni2161" unicode="&#x2161;" 
d="M273 -16v754h110v-754h-110zM618 -16v754h110v-754h-110z" />
    <glyph glyph-name="uni2162" unicode="&#x2162;" 
d="M125 -16v754h110v-754h-110zM445 -16v754h110v-754h-110zM764 -16v754h110v-754h-110z" />
    <glyph glyph-name="uni2163" unicode="&#x2163;" 
d="M108 -16v754h106v-754h-106zM569 -16l-252 754h111l166 -523c11 -35 28 -96 41 -139h3c12 43 29 105 40 139l165 523h108l-253 -754h-129z" />
    <glyph glyph-name="uni2164" unicode="&#x2164;" 
d="M435 -16l-287 754h118l186 -527c12 -35 35 -100 49 -143h3c14 43 37 109 49 143l185 527h114l-287 -754h-130z" />
    <glyph glyph-name="uni2165" unicode="&#x2165;" 
d="M301 -16l-252 754h111l166 -523c11 -35 28 -96 41 -139h3c12 43 29 105 40 139l165 523h108l-253 -754h-129zM786 -16v754h106v-754h-106z" />
    <glyph glyph-name="uni2166" unicode="&#x2166;" 
d="M220 -16l-158 754h105l94 -454c11 -52 23 -144 27 -179h2c4 37 18 127 28 179l89 454h109l-160 -754h-136zM590 -16v754h105v-754h-105zM812 -16v754h105v-754h-105z" />
    <glyph glyph-name="uni2167" unicode="&#x2167;" 
d="M170 -16l-148 754h98l89 -454c10 -52 21 -144 25 -179h2c4 37 17 127 26 179l84 454h102l-150 -754h-128zM494 -16v754h99v-754h-99zM669 -16v754h99v-754h-99zM844 -16v754h99v-754h-99z" />
    <glyph glyph-name="uni2168" unicode="&#x2168;" 
d="M121 -16v754h106v-754h-106zM824 -16l-121 196c-23 38 -55 89 -74 124c-20 -35 -52 -88 -74 -124l-119 -196h-119l252 393l-234 361h121l108 -175c13 -22 55 -87 72 -117c17 30 58 97 70 117l103 175h114l-226 -361l253 -393h-126z" />
    <glyph glyph-name="uni2169" unicode="&#x2169;" 
d="M714 -16l-136 197c-27 38 -62 94 -83 129c-23 -35 -60 -93 -85 -129l-133 -197h-129l283 393l-263 361h131l123 -176c15 -22 62 -92 80 -122c18 30 65 102 78 122l118 176h123l-254 -361l284 -393h-137z" />
    <glyph glyph-name="Japan1.8061" unicode="&#x1f100;" 
d="M453 -30c-189 0 -255 176 -255 394c0 246 88 387 259 387c166 0 252 -141 252 -397c0 -208 -68 -384 -256 -384zM456 59c93 0 143 104 143 303c0 194 -53 300 -145 300c-93 0 -146 -106 -146 -299c0 -200 53 -304 148 -304zM809 -16v121h121v-121h-121z" />
    <glyph glyph-name="uni2488" unicode="&#x2488;" 
d="M462 -16v432c0 64 4 163 6 203h-2c-18 -17 -41 -40 -79 -73l-39 -34l-60 71l185 155h97v-754h-108zM809 -16v121h121v-121h-121z" />
    <glyph glyph-name="uni2489" unicode="&#x2489;" 
d="M199 -16v108c253 218 353 330 353 442c0 88 -66 129 -151 129c-54 0 -111 -17 -172 -52l-12 96c59 28 127 44 204 44c144 0 244 -78 244 -210c0 -95 -54 -184 -200 -330c-62 -62 -119 -106 -167 -140v-2c66 2 164 4 226 4h157v-89h-482zM809 -16v121h121v-121h-121z" />
    <glyph glyph-name="uni248A" unicode="&#x248a;" 
d="M674 187c0 -128 -105 -216 -278 -216c-64 0 -130 11 -192 31l6 96c70 -30 124 -43 183 -43c96 0 172 46 172 140c0 90 -80 138 -229 138c-9 0 -20 0 -31 -1v86c10 -1 20 -1 29 -1c140 0 228 44 228 130c0 79 -68 120 -157 120c-56 0 -106 -11 -171 -40l-6 91
c58 23 122 33 183 33c158 0 255 -74 255 -199c0 -98 -82 -163 -191 -173v-3c113 -8 199 -81 199 -189zM809 -16v121h121v-121h-121z" />
    <glyph glyph-name="uni248B" unicode="&#x248b;" 
d="M507 -16v165h-356v89l310 500h147v-500h101v-89h-101v-165h-101zM507 449c0 64 1 144 4 222h-2c-17 -37 -54 -106 -86 -159l-166 -274h250v211zM809 -16v121h121v-121h-121z" />
    <glyph glyph-name="uni248C" unicode="&#x248c;" 
d="M226 91c55 -25 107 -36 155 -36c105 0 186 58 186 160c0 106 -73 158 -186 158c-49 0 -100 -11 -152 -30l6 395h417v-87h-319l-8 -205c31 8 57 10 89 10c150 0 261 -89 261 -232c0 -155 -116 -253 -293 -253c-49 0 -107 8 -159 24zM809 -16v121h121v-121h-121z" />
    <glyph glyph-name="uni248D" unicode="&#x248d;" 
d="M696 229c0 -142 -92 -258 -248 -258c-171 0 -262 126 -262 365c0 263 114 415 317 415c52 0 97 -6 146 -21l-11 -89c-47 19 -86 26 -129 26c-134 0 -216 -108 -221 -291h3c36 58 113 88 182 88c135 0 223 -104 223 -235zM590 218c0 90 -43 165 -144 165
c-80 0 -143 -70 -143 -158c0 -97 62 -174 143 -174c88 0 144 74 144 167zM809 -16v121h121v-121h-121z" />
    <glyph glyph-name="uni248E" unicode="&#x248e;" 
d="M329 -16l288 663h-370v91h479v-91l-280 -663h-117zM809 -16v121h121v-121h-121z" />
    <glyph glyph-name="uni248F" unicode="&#x248f;" 
d="M533 386c120 -43 176 -104 176 -200c0 -135 -119 -215 -271 -215c-156 0 -260 77 -260 208c0 93 54 156 170 204c-113 45 -154 97 -154 177c0 115 98 191 249 191c143 0 241 -70 241 -186c0 -81 -53 -135 -151 -179zM456 420c76 33 115 77 115 137c0 76 -58 115 -131 115
c-72 0 -137 -40 -137 -109c0 -74 62 -112 153 -143zM426 340c-93 -32 -138 -85 -138 -157c0 -81 63 -129 151 -129c86 0 159 47 159 128c0 77 -65 123 -172 158zM809 -16v121h121v-121h-121z" />
    <glyph glyph-name="uni2490" unicode="&#x2490;" 
d="M706 392c0 -262 -112 -421 -315 -421c-57 0 -105 7 -157 25l11 90c50 -23 93 -31 140 -31c134 0 214 115 218 297h-3c-35 -58 -110 -87 -179 -87c-139 0 -223 98 -223 229c0 142 90 257 246 257c170 0 262 -120 262 -359zM588 501c0 98 -59 170 -140 170
c-89 0 -143 -74 -143 -166c0 -90 44 -159 143 -159c85 0 140 67 140 155zM809 -16v121h121v-121h-121z" />
    <glyph glyph-name="uni2474" unicode="&#x2474;" 
d="M188 -100c-108 120 -168 290 -168 480s60 361 168 480l19 -15c-84 -117 -125 -274 -125 -465s41 -347 125 -465zM793 -85c84 117 125 274 125 465s-41 347 -125 465l19 15c108 -120 168 -290 168 -480s-60 -361 -168 -480zM473 2v432c0 64 4 163 6 203h-2
c-18 -17 -41 -40 -79 -73l-39 -34l-60 71l185 155h97v-754h-108z" />
    <glyph glyph-name="uni2475" unicode="&#x2475;" 
d="M188 -100c-108 120 -168 290 -168 480s60 361 168 480l19 -15c-84 -117 -125 -274 -125 -465s41 -347 125 -465zM793 -85c84 117 125 274 125 465s-41 347 -125 465l19 15c108 -120 168 -290 168 -480s-60 -361 -168 -480zM264 2v108c253 218 353 330 353 442
c0 88 -66 129 -151 129c-54 0 -111 -17 -172 -52l-12 96c59 28 127 44 204 44c144 0 244 -78 244 -210c0 -95 -54 -184 -200 -330c-62 -62 -119 -106 -167 -140v-2c66 2 164 4 226 4h157v-89h-482z" />
    <glyph glyph-name="uni2476" unicode="&#x2476;" 
d="M188 -100c-108 120 -168 290 -168 480s60 361 168 480l19 -15c-84 -117 -125 -274 -125 -465s41 -347 125 -465zM793 -85c84 117 125 274 125 465s-41 347 -125 465l19 15c108 -120 168 -290 168 -480s-60 -361 -168 -480zM742 205c0 -128 -105 -216 -278 -216
c-64 0 -130 11 -192 31l6 96c70 -30 124 -43 183 -43c96 0 172 46 172 140c0 90 -80 138 -229 138c-9 0 -20 0 -31 -1v86c10 -1 20 -1 29 -1c140 0 228 44 228 130c0 79 -68 120 -157 120c-56 0 -106 -11 -171 -40l-6 91c58 23 122 33 183 33c158 0 255 -74 255 -199
c0 -98 -82 -163 -191 -173v-3c113 -8 199 -81 199 -189z" />
    <glyph glyph-name="uni2477" unicode="&#x2477;" 
d="M188 -100c-108 120 -168 290 -168 480s60 361 168 480l19 -15c-84 -117 -125 -274 -125 -465s41 -347 125 -465zM793 -85c84 117 125 274 125 465s-41 347 -125 465l19 15c108 -120 168 -290 168 -480s-60 -361 -168 -480zM571 2v165h-356v89l310 500h147v-500h101v-89
h-101v-165h-101zM571 467c0 64 1 144 4 222h-2c-17 -37 -54 -106 -86 -159l-166 -274h250v211z" />
    <glyph glyph-name="uni2478" unicode="&#x2478;" 
d="M188 -100c-108 120 -168 290 -168 480s60 361 168 480l19 -15c-84 -117 -125 -274 -125 -465s41 -347 125 -465zM793 -85c84 117 125 274 125 465s-41 347 -125 465l19 15c108 -120 168 -290 168 -480s-60 -361 -168 -480zM297 109c55 -25 107 -36 155 -36
c105 0 186 58 186 160c0 106 -73 158 -186 158c-49 0 -100 -11 -152 -30l6 395h417v-87h-319l-8 -205c31 8 57 10 89 10c150 0 261 -89 261 -232c0 -155 -116 -253 -293 -253c-49 0 -107 8 -159 24z" />
    <glyph glyph-name="uni2479" unicode="&#x2479;" 
d="M188 -100c-108 120 -168 290 -168 480s60 361 168 480l19 -15c-84 -117 -125 -274 -125 -465s41 -347 125 -465zM793 -85c84 117 125 274 125 465s-41 347 -125 465l19 15c108 -120 168 -290 168 -480s-60 -361 -168 -480zM752 247c0 -142 -92 -258 -248 -258
c-171 0 -262 126 -262 365c0 263 114 415 317 415c52 0 97 -6 146 -21l-11 -89c-47 19 -86 26 -129 26c-134 0 -216 -108 -221 -291h3c36 58 113 88 182 88c135 0 223 -104 223 -235zM646 236c0 90 -43 165 -144 165c-80 0 -143 -70 -143 -158c0 -97 62 -174 143 -174
c88 0 144 74 144 167z" />
    <glyph glyph-name="uni247A" unicode="&#x247a;" 
d="M188 -100c-108 120 -168 290 -168 480s60 361 168 480l19 -15c-84 -117 -125 -274 -125 -465s41 -347 125 -465zM793 -85c84 117 125 274 125 465s-41 347 -125 465l19 15c108 -120 168 -290 168 -480s-60 -361 -168 -480zM352 2l288 663h-370v91h479v-91l-280 -663h-117
z" />
    <glyph glyph-name="uni247B" unicode="&#x247b;" 
d="M188 -100c-108 120 -168 290 -168 480s60 361 168 480l19 -15c-84 -117 -125 -274 -125 -465s41 -347 125 -465zM793 -85c84 117 125 274 125 465s-41 347 -125 465l19 15c108 -120 168 -290 168 -480s-60 -361 -168 -480zM595 404c120 -43 176 -104 176 -200
c0 -135 -119 -215 -271 -215c-156 0 -260 77 -260 208c0 93 54 156 170 204c-113 45 -154 97 -154 177c0 115 98 191 249 191c143 0 241 -70 241 -186c0 -81 -53 -135 -151 -179zM518 438c76 33 115 77 115 137c0 76 -58 115 -131 115c-72 0 -137 -40 -137 -109
c0 -74 62 -112 153 -143zM488 358c-93 -32 -138 -85 -138 -157c0 -81 63 -129 151 -129c86 0 159 47 159 128c0 77 -65 123 -172 158z" />
    <glyph glyph-name="uni247C" unicode="&#x247c;" 
d="M188 -100c-108 120 -168 290 -168 480s60 361 168 480l19 -15c-84 -117 -125 -274 -125 -465s41 -347 125 -465zM793 -85c84 117 125 274 125 465s-41 347 -125 465l19 15c108 -120 168 -290 168 -480s-60 -361 -168 -480zM764 410c0 -262 -112 -421 -315 -421
c-57 0 -105 7 -157 25l11 90c50 -23 93 -31 140 -31c134 0 214 115 218 297h-3c-35 -58 -110 -87 -179 -87c-139 0 -223 98 -223 229c0 142 90 257 246 257c170 0 262 -120 262 -359zM646 519c0 98 -59 170 -140 170c-89 0 -143 -74 -143 -166c0 -90 44 -159 143 -159
c85 0 140 67 140 155z" />
    <glyph glyph-name="uni247D" unicode="&#x247d;" 
d="M188 -100c-108 120 -168 290 -168 480s60 361 168 480l19 -15c-84 -117 -125 -274 -125 -465s41 -347 125 -465zM793 -85c84 117 125 274 125 465s-41 347 -125 465l19 15c108 -120 168 -290 168 -480s-60 -361 -168 -480zM646 -7c-118 0 -177 136 -177 384
c0 249 53 387 178 387c117 0 172 -135 172 -385c0 -247 -57 -386 -173 -386zM291 2v393c0 77 1 189 3 253h-2c-24 -25 -37 -36 -55 -52l-28 -24l-50 64l135 120h89v-754h-92zM644 82c60 0 82 104 82 297c0 204 -20 299 -82 299c-60 0 -82 -97 -82 -302
c0 -193 22 -294 82 -294z" />
    <glyph glyph-name="uni247E" unicode="&#x247e;" 
d="M188 -100c-108 120 -168 290 -168 480s60 361 168 480l19 -15c-84 -117 -125 -274 -125 -465s41 -347 125 -465zM793 -85c84 117 125 274 125 465s-41 347 -125 465l19 15c108 -120 168 -290 168 -480s-60 -361 -168 -480zM328 2v393c0 77 1 189 3 253h-2
c-24 -25 -37 -36 -55 -52l-28 -24l-50 64l135 120h89v-754h-92zM630 2v393c0 77 1 189 3 253h-2c-24 -25 -37 -36 -55 -52l-28 -24l-50 64l135 120h89v-754h-92z" />
    <glyph glyph-name="uni247F" unicode="&#x247f;" 
d="M188 -100c-108 120 -168 290 -168 480s60 361 168 480l19 -15c-84 -117 -125 -274 -125 -465s41 -347 125 -465zM793 -85c84 117 125 274 125 465s-41 347 -125 465l19 15c108 -120 168 -290 168 -480s-60 -361 -168 -480zM467 2v87c136 167 222 323 222 466
c0 84 -33 125 -98 125c-31 0 -64 -8 -100 -29l-6 80c37 22 79 34 127 34c101 0 170 -56 170 -195s-46 -236 -113 -338c-37 -57 -83 -113 -110 -145v-2c29 1 68 3 101 3h127v-86h-320zM293 2v393c0 77 1 189 3 253h-2c-24 -25 -37 -36 -55 -52l-28 -24l-50 64l135 120h89
v-754h-92z" />
    <glyph glyph-name="uni2480" unicode="&#x2480;" 
d="M188 -100c-108 120 -168 290 -168 480s60 361 168 480l19 -15c-84 -117 -125 -274 -125 -465s41 -347 125 -465zM793 -85c84 117 125 274 125 465s-41 347 -125 465l19 15c108 -120 168 -290 168 -480s-60 -361 -168 -480zM481 100c35 -18 69 -23 105 -23
c67 0 124 39 124 138c0 96 -48 134 -130 134c-10 0 -24 0 -35 -1v82c15 -1 28 -2 39 -2c71 0 121 45 121 134c0 85 -46 120 -105 120c-39 0 -68 -7 -105 -27l-5 82c42 19 82 28 129 28c97 0 178 -60 178 -188c0 -108 -55 -160 -113 -180v-1c66 -17 119 -64 119 -181
c0 -144 -89 -221 -206 -221c-40 0 -83 5 -120 19zM293 2v393c0 77 1 189 3 253h-2c-24 -25 -37 -36 -55 -52l-28 -24l-50 64l135 120h89v-754h-92z" />
    <glyph glyph-name="uni2481" unicode="&#x2481;" 
d="M188 -100c-108 120 -168 290 -168 480s60 361 168 480l19 -15c-84 -117 -125 -274 -125 -465s41 -347 125 -465zM793 -85c84 117 125 274 125 465s-41 347 -125 465l19 15c108 -120 168 -290 168 -480s-60 -361 -168 -480zM293 2v393c0 77 1 189 3 253h-2
c-24 -25 -37 -36 -55 -52l-28 -24l-50 64l135 120h89v-754h-92zM688 2v171h-221v90l193 493h116v-499h71v-84h-71v-171h-88zM691 397c0 68 1 154 4 245h-2c-25 -69 -58 -157 -79 -210l-69 -175h146v140z" />
    <glyph glyph-name="uni2482" unicode="&#x2482;" 
d="M188 -100c-108 120 -168 290 -168 480s60 361 168 480l19 -15c-84 -117 -125 -274 -125 -465s41 -347 125 -465zM793 -85c84 117 125 274 125 465s-41 347 -125 465l19 15c108 -120 168 -290 168 -480s-60 -361 -168 -480zM293 2v393c0 77 1 189 3 253h-2
c-24 -25 -37 -36 -55 -52l-28 -24l-50 64l135 120h89v-754h-92zM496 95c30 -12 59 -18 98 -18c82 0 123 63 123 166c0 96 -36 146 -119 146c-34 0 -60 -5 -93 -17l6 384h275v-84h-198l-4 -210c22 6 29 8 55 8c106 0 171 -79 171 -222c0 -167 -91 -253 -212 -253
c-40 0 -74 4 -105 14z" />
    <glyph glyph-name="uni2483" unicode="&#x2483;" 
d="M188 -100c-108 120 -168 290 -168 480s60 361 168 480l19 -15c-84 -117 -125 -274 -125 -465s41 -347 125 -465zM793 -85c84 117 125 274 125 465s-41 347 -125 465l19 15c108 -120 168 -290 168 -480s-60 -361 -168 -480zM562 403c22 38 57 67 116 67
c89 0 146 -80 146 -220c0 -156 -68 -256 -175 -256c-132 0 -180 135 -180 339c0 239 62 432 229 432c32 0 70 -3 101 -14l-8 -82c-28 11 -58 16 -85 16c-108 0 -142 -125 -145 -282h1zM293 2v393c0 77 1 189 3 253h-2c-24 -25 -37 -36 -55 -52l-28 -24l-50 64l135 120h89
v-754h-92zM649 71c60 0 84 80 84 167c0 96 -24 155 -78 155c-50 0 -90 -60 -90 -147c0 -93 23 -175 84 -175z" />
    <glyph glyph-name="uni2484" unicode="&#x2484;" 
d="M188 -100c-108 120 -168 290 -168 480s60 361 168 480l19 -15c-84 -117 -125 -274 -125 -465s41 -347 125 -465zM793 -85c84 117 125 274 125 465s-41 347 -125 465l19 15c108 -120 168 -290 168 -480s-60 -361 -168 -480zM300 2v393c0 77 1 189 3 253h-2
c-24 -25 -37 -36 -55 -52l-28 -24l-50 64l135 120h89v-754h-92zM534 2l179 667h-224v87h317v-88l-177 -666h-95z" />
    <glyph glyph-name="uni2485" unicode="&#x2485;" 
d="M188 -100c-108 120 -168 290 -168 480s60 361 168 480l19 -15c-84 -117 -125 -274 -125 -465s41 -347 125 -465zM793 -85c84 117 125 274 125 465s-41 347 -125 465l19 15c108 -120 168 -290 168 -480s-60 -361 -168 -480zM824 195c0 -133 -75 -201 -182 -201
s-180 68 -180 198c0 101 51 156 117 197c-62 44 -103 95 -103 188c0 120 73 188 170 188c95 0 164 -62 164 -180c0 -93 -45 -150 -105 -188c73 -50 119 -105 119 -202zM293 2v393c0 77 1 189 3 253h-2c-24 -25 -37 -36 -55 -52l-28 -24l-50 64l135 120h89v-754h-92zM724 577
c0 68 -27 112 -79 112c-54 0 -83 -46 -83 -117c0 -74 31 -111 84 -142c50 30 78 76 78 147zM733 193c0 64 -24 114 -93 157c-52 -33 -86 -86 -86 -155c0 -81 34 -123 88 -123c52 0 91 42 91 121z" />
    <glyph glyph-name="uni2486" unicode="&#x2486;" 
d="M188 -100c-108 120 -168 290 -168 480s60 361 168 480l19 -15c-84 -117 -125 -274 -125 -465s41 -347 125 -465zM793 -85c84 117 125 274 125 465s-41 347 -125 465l19 15c108 -120 168 -290 168 -480s-60 -361 -168 -480zM506 90c28 -11 58 -16 85 -16
c108 0 142 125 145 282h-1c-22 -38 -57 -67 -116 -67c-89 0 -146 80 -146 220c0 156 68 256 175 256c132 0 180 -135 180 -339c0 -239 -62 -432 -229 -432c-32 0 -70 3 -101 14zM295 2v393c0 77 1 189 3 253h-2c-24 -25 -37 -36 -55 -52l-28 -24l-50 64l135 120h89v-754h-92
zM642 366c50 0 90 60 90 147c0 93 -23 175 -84 175c-60 0 -84 -80 -84 -167c0 -96 24 -155 78 -155z" />
    <glyph glyph-name="uni2487" unicode="&#x2487;" 
d="M188 -100c-108 120 -168 290 -168 480s60 361 168 480l19 -15c-84 -117 -125 -274 -125 -465s41 -347 125 -465zM793 -85c84 117 125 274 125 465s-41 347 -125 465l19 15c108 -120 168 -290 168 -480s-60 -361 -168 -480zM167 2v87c136 167 222 323 222 466
c0 84 -33 125 -98 125c-31 0 -64 -10 -100 -33l-6 82c37 24 79 36 127 36c93 0 170 -48 170 -195c0 -139 -46 -236 -113 -338c-37 -57 -83 -113 -110 -145v-2c29 1 68 3 101 3h127v-86h-320zM696 -7c-118 0 -176 136 -176 384c0 249 52 387 177 387c117 0 171 -135 171 -385
c0 -247 -56 -386 -172 -386zM694 82c60 0 81 104 81 297c0 204 -19 299 -81 299c-60 0 -81 -97 -81 -302c0 -193 21 -294 81 -294z" />
    <glyph glyph-name="uni3251" unicode="&#x3251;" 
d="M500 -93c-261 0 -473 212 -473 473s212 473 473 473c260 0 472 -212 472 -473s-212 -473 -472 -473zM934 380c0 240 -194 435 -434 435c-241 0 -435 -195 -435 -435s194 -435 435 -435c240 0 434 195 434 435zM221 86v75c119 126 202 237 202 338c0 67 -33 97 -87 97
c-29 0 -59 -8 -93 -27l-7 83c36 19 81 29 119 29c85 0 156 -44 156 -163c0 -96 -38 -168 -98 -248c-32 -42 -69 -79 -96 -102v-2c28 1 66 3 96 3h103v-83h-295zM686 85v300c0 59 2 149 3 197h-1c-24 -23 -44 -40 -61 -52l-30 -24l-42 60l140 107h78v-588h-87z" />
    <glyph glyph-name="uni2170" unicode="&#x2170;" 
d="M443 634v114h114v-114h-114zM448 -16v551h104v-551h-104z" />
    <glyph glyph-name="uni2171" unicode="&#x2171;" 
d="M291 634v114h114v-114h-114zM594 634v114h114v-114h-114zM296 -16v551h104v-551h-104zM599 -16v551h104v-551h-104z" />
    <glyph glyph-name="uni2172" unicode="&#x2172;" 
d="M158 634v114h114v-114h-114zM443 634v114h114v-114h-114zM728 634v114h114v-114h-114zM163 -16v551h104v-551h-104zM448 -16v551h104v-551h-104zM733 -16v551h104v-551h-104z" />
    <glyph glyph-name="uni2173" unicode="&#x2173;" 
d="M164 634v114h114v-114h-114zM169 -16v551h104v-551h-104zM575 -16l-198 551h111l112 -336c12 -35 29 -95 39 -133h2c11 38 31 101 41 133l113 336h103l-202 -551h-121z" />
    <glyph glyph-name="uni2174" unicode="&#x2174;" 
d="M437 -16l-198 551h111l112 -336c12 -35 29 -95 39 -133h2c11 38 31 101 41 133l113 336h103l-202 -551h-121z" />
    <glyph glyph-name="uni2175" unicode="&#x2175;" 
d="M722 634v114h114v-114h-114zM300 -16l-198 551h111l112 -336c12 -35 29 -95 39 -133h2c11 38 31 101 41 133l113 336h103l-202 -551h-121zM727 -16v551h104v-551h-104z" />
    <glyph glyph-name="uni2176" unicode="&#x2176;" 
d="M566 642v105h107v-105h-107zM790 642v105h107v-105h-107zM216 -16l-155 551h104l82 -313c9 -35 21 -88 28 -124h2c6 36 20 93 28 124l80 313h102l-157 -551h-114zM569 -16v551h101v-551h-101zM793 -16v551h101v-551h-101z" />
    <glyph glyph-name="uni2177" unicode="&#x2177;" 
d="M478 642v105h103v-105h-103zM656 642v105h103v-105h-103zM834 642v105h103v-105h-103zM172 -16l-148 551h99l79 -315c9 -35 20 -86 27 -122h2c6 36 19 91 27 122l77 315h97l-150 -551h-110zM481 -16v551h97v-551h-97zM659 -16v551h97v-551h-97zM837 -16v551h97v-551h-97z
" />
    <glyph glyph-name="uni2178" unicode="&#x2178;" 
d="M155 634v114h114v-114h-114zM160 -16v551h104v-551h-104zM768 -16l-72 119c-14 22 -50 82 -65 111h-1c-15 -27 -50 -84 -66 -111l-72 -119h-121l199 289l-184 262h125l66 -108c13 -22 41 -68 59 -102h1c17 32 47 83 58 102l65 108h114l-177 -262l194 -289h-123z" />
    <glyph glyph-name="uni2179" unicode="&#x2179;" 
d="M637 -16l-72 119c-14 22 -50 82 -65 111h-1c-15 -27 -50 -84 -66 -111l-72 -119h-121l199 289l-184 262h125l66 -108c13 -22 41 -68 59 -102h1c17 32 47 83 58 102l65 108h114l-177 -262l194 -289h-123z" />
    <glyph glyph-name="uni3252" unicode="&#x3252;" 
d="M500 -93c-261 0 -473 212 -473 473s212 473 473 473c260 0 472 -212 472 -473s-212 -473 -472 -473zM934 380c0 240 -194 435 -434 435c-241 0 -435 -195 -435 -435s194 -435 435 -435c240 0 434 195 434 435zM195 86v75c120 126 202 237 202 338c0 67 -32 97 -86 97
c-29 0 -60 -8 -93 -27l-7 83c35 19 80 29 119 29c84 0 155 -44 155 -163c0 -96 -38 -168 -98 -248c-32 -42 -69 -79 -95 -102v-2c28 1 65 3 96 3h100v-83h-293zM519 86v75c119 126 202 237 202 338c0 67 -33 97 -87 97c-29 0 -59 -8 -93 -27l-7 83c36 19 81 29 119 29
c85 0 156 -44 156 -163c0 -96 -38 -168 -97 -248c-32 -42 -70 -79 -96 -102v-2c27 1 65 3 96 3h99v-83h-292z" />
    <glyph glyph-name="uni3253" unicode="&#x3253;" 
d="M500 -93c-261 0 -473 212 -473 473s212 473 473 473c260 0 472 -212 472 -473s-212 -473 -472 -473zM934 380c0 240 -194 435 -434 435c-241 0 -435 -195 -435 -435s194 -435 435 -435c240 0 434 195 434 435zM196 86v75c120 126 202 237 202 338c0 67 -33 97 -87 97
c-29 0 -59 -8 -93 -27l-7 83c36 19 80 29 119 29c85 0 155 -44 155 -163c0 -96 -37 -168 -97 -248c-32 -42 -70 -79 -96 -102v-2c28 1 66 3 96 3h103v-83h-295zM537 174c32 -14 64 -20 95 -20c61 0 110 29 110 100c0 70 -43 97 -115 97c-9 0 -22 0 -31 -1v73
c12 -1 25 -2 35 -2c62 0 106 32 106 97c0 61 -40 87 -92 87c-36 0 -62 -8 -95 -22l-6 74c39 16 76 23 117 23c91 0 162 -46 162 -147c0 -83 -47 -123 -100 -140v-1c61 -14 106 -51 106 -140c0 -114 -79 -173 -187 -173c-37 0 -75 4 -108 16z" />
    <glyph glyph-name="uni3254" unicode="&#x3254;" 
d="M500 -93c-261 0 -473 212 -473 473s212 473 473 473c260 0 472 -212 472 -473s-212 -473 -472 -473zM934 380c0 240 -194 435 -434 435c-241 0 -435 -195 -435 -435s194 -435 435 -435c240 0 434 195 434 435zM195 86v75c120 126 202 237 202 338c0 67 -32 97 -86 97
c-29 0 -60 -8 -93 -27l-7 83c36 19 80 29 119 29c85 0 155 -44 155 -163c0 -96 -38 -168 -97 -248c-32 -42 -70 -79 -96 -102v-2c28 1 66 3 96 3h102v-83h-295zM706 85v130h-199v78l175 380h107v-385h63v-73h-63v-130h-83zM708 384c0 52 1 123 4 195h-1l-75 -171l-55 -120
h127v96z" />
    <glyph glyph-name="uni3255" unicode="&#x3255;" 
d="M500 -93c-261 0 -473 212 -473 473s212 473 473 473c260 0 472 -212 472 -473s-212 -473 -472 -473zM934 380c0 240 -194 435 -434 435c-241 0 -435 -195 -435 -435s194 -435 435 -435c240 0 434 195 434 435zM196 86v75c120 126 202 237 202 338c0 67 -33 97 -87 97
c-29 0 -59 -8 -93 -27l-7 83c36 19 80 29 119 29c85 0 155 -44 155 -163c0 -96 -37 -168 -97 -248c-32 -42 -70 -79 -96 -102v-2c28 1 66 3 96 3h103v-83h-295zM542 168c27 -9 53 -14 88 -14c72 0 108 45 108 119c0 70 -33 107 -105 107c-30 0 -54 -5 -84 -14l3 306h251v-75
h-182l-1 -151c19 4 33 6 54 6c97 0 150 -65 150 -175c0 -132 -78 -198 -187 -198c-37 0 -69 3 -99 11z" />
    <glyph glyph-name="uni3256" unicode="&#x3256;" 
d="M500 -93c-261 0 -473 212 -473 473s212 473 473 473c260 0 472 -212 472 -473s-212 -473 -472 -473zM934 380c0 240 -194 435 -434 435c-241 0 -435 -195 -435 -435s194 -435 435 -435c240 0 434 195 434 435zM193 86v75c120 126 202 237 202 338c0 67 -32 97 -87 97
c-29 0 -59 -8 -92 -27l-8 83c36 19 81 29 120 29c84 0 155 -44 155 -163c0 -96 -38 -168 -98 -248c-32 -42 -70 -79 -96 -102v-2c28 1 66 3 97 3h102v-83h-295zM606 395c19 32 53 58 104 58c80 0 130 -63 130 -173c0 -122 -63 -201 -159 -201c-117 0 -165 104 -165 266
c0 187 56 335 209 335c29 0 62 -4 89 -13l-8 -72c-25 10 -48 13 -74 13c-93 0 -125 -95 -128 -213h2zM680 149c52 0 74 57 74 121c0 71 -24 114 -71 114c-42 0 -75 -45 -75 -108c0 -69 22 -127 72 -127z" />
    <glyph glyph-name="uni3257" unicode="&#x3257;" 
d="M500 -93c-261 0 -473 212 -473 473s212 473 473 473c260 0 472 -212 472 -473s-212 -473 -472 -473zM934 380c0 240 -194 435 -434 435c-241 0 -435 -195 -435 -435s194 -435 435 -435c240 0 434 195 434 435zM199 86v75c119 126 202 237 202 338c0 67 -33 97 -87 97
c-29 0 -59 -8 -93 -27l-7 83c36 19 80 29 119 29c85 0 156 -44 156 -163c0 -96 -39 -168 -98 -248c-32 -42 -70 -79 -96 -102v-2c28 1 66 3 97 3h102v-83h-295zM569 85l159 509h-198v79h283v-79l-156 -509h-88z" />
    <glyph glyph-name="uni3258" unicode="&#x3258;" 
d="M500 -93c-261 0 -473 212 -473 473s212 473 473 473c260 0 472 -212 472 -473s-212 -473 -472 -473zM934 380c0 240 -194 435 -434 435c-241 0 -435 -195 -435 -435s194 -435 435 -435c240 0 434 195 434 435zM194 86v75c120 126 202 237 202 338c0 67 -32 97 -86 97
c-29 0 -60 -8 -93 -27l-7 83c36 19 80 29 119 29c84 0 155 -44 155 -163c0 -96 -38 -168 -98 -248c-31 -42 -69 -79 -95 -102v-2c28 1 65 3 96 3h102v-83h-295zM845 238c0 -105 -69 -159 -164 -159s-162 54 -162 155c0 79 42 121 101 153c-56 34 -88 74 -88 146
c0 94 68 147 153 147c82 0 146 -48 146 -141c0 -72 -36 -116 -89 -145c65 -39 103 -81 103 -156zM753 530c0 50 -24 82 -69 82c-47 0 -72 -34 -72 -85c0 -54 27 -81 72 -104c44 22 69 56 69 107zM759 237c0 48 -21 84 -80 115c-43 -24 -74 -62 -74 -113c0 -59 29 -91 76 -91
c46 0 78 31 78 89z" />
    <glyph glyph-name="uni3259" unicode="&#x3259;" 
d="M500 -93c-261 0 -473 212 -473 473s212 473 473 473c260 0 472 -212 472 -473s-212 -473 -472 -473zM934 380c0 240 -194 435 -434 435c-241 0 -435 -195 -435 -435s194 -435 435 -435c240 0 434 195 434 435zM196 86v75c119 126 201 237 201 338c0 67 -32 97 -86 97
c-29 0 -59 -8 -93 -27l-7 83c36 19 80 29 119 29c85 0 155 -44 155 -163c0 -96 -37 -168 -97 -248c-32 -42 -70 -79 -96 -102v-2c28 1 66 3 96 3h102v-83h-294zM565 164c25 -10 49 -13 75 -13c93 0 125 95 128 213h-2c-19 -33 -53 -58 -105 -58c-80 0 -129 63 -129 173
c0 122 63 201 159 201c117 0 165 -104 165 -266c0 -188 -56 -335 -208 -335c-29 0 -64 4 -91 13zM689 375c42 0 75 45 75 108c0 69 -22 127 -73 127s-72 -58 -72 -121c0 -71 23 -114 70 -114z" />
    <glyph glyph-name="uni325A" unicode="&#x325a;" 
d="M500 -93c-261 0 -473 212 -473 473s212 473 473 473c260 0 472 -212 472 -473s-212 -473 -472 -473zM934 380c0 240 -194 435 -434 435c-241 0 -435 -195 -435 -435s194 -435 435 -435c240 0 434 195 434 435zM202 174c32 -14 64 -20 95 -20c60 0 109 29 109 100
c0 70 -42 97 -115 97c-8 0 -22 0 -31 -1v73c12 -1 26 -2 36 -2c62 0 105 32 105 97c0 61 -39 87 -91 87c-36 0 -63 -8 -96 -22l-5 74c38 16 76 23 117 23c90 0 162 -46 162 -147c0 -83 -47 -123 -101 -140v-1c61 -14 106 -51 106 -140c0 -114 -78 -173 -186 -173
c-38 0 -75 4 -109 16zM696 78c-109 0 -166 106 -166 299c0 196 52 302 167 302c108 0 161 -105 161 -300c0 -194 -55 -301 -162 -301zM694 155c51 0 76 76 76 224c0 156 -23 226 -76 226c-51 0 -77 -71 -77 -228c0 -148 26 -222 77 -222z" />
    <glyph glyph-name="uni325B" unicode="&#x325b;" 
d="M500 -93c-261 0 -473 212 -473 473s212 473 473 473c260 0 472 -212 472 -473s-212 -473 -472 -473zM934 380c0 240 -194 435 -434 435c-241 0 -435 -195 -435 -435s194 -435 435 -435c240 0 434 195 434 435zM221 174c32 -14 64 -20 95 -20c61 0 110 29 110 100
c0 70 -43 97 -115 97c-9 0 -22 0 -31 -1v73c12 -1 25 -2 35 -2c63 0 106 32 106 97c0 61 -40 87 -91 87c-37 0 -63 -8 -96 -22l-6 74c39 16 76 23 118 23c90 0 161 -46 161 -147c0 -83 -46 -123 -100 -140v-1c61 -14 106 -51 106 -140c0 -114 -79 -173 -187 -173
c-37 0 -75 4 -108 16zM678 85v300c0 59 2 149 3 196h-1c-24 -23 -45 -39 -61 -51l-30 -24l-42 60l140 107h78v-588h-87z" />
    <glyph glyph-name="uni249C" unicode="&#x249c;" 
d="M188 -100c-108 120 -168 290 -168 480s60 361 168 480l19 -15c-84 -117 -125 -274 -125 -465s41 -347 125 -465zM793 -85c84 117 125 274 125 465s-41 347 -125 465l19 15c108 -120 168 -290 168 -480s-60 -361 -168 -480zM624 139c-1 8 -2 26 -2 40c0 13 1 31 2 44h-2
c-34 -59 -89 -91 -166 -91c-105 0 -173 58 -173 150c0 102 93 161 261 161c20 0 47 -1 70 -3v4c0 84 -42 127 -126 127c-52 0 -105 -20 -144 -48l-7 81c47 29 108 42 166 42c145 0 199 -83 199 -196c0 -64 -2 -141 -2 -162c0 -54 2 -113 6 -149h-82zM615 375
c-11 1 -28 2 -51 2c-122 0 -182 -29 -182 -95c0 -49 37 -78 94 -78c55 0 102 28 123 72c11 23 16 55 16 99z" />
    <glyph glyph-name="uni249D" unicode="&#x249d;" 
d="M188 -100c-108 120 -168 290 -168 480s60 361 168 480l19 -15c-84 -117 -125 -274 -125 -465s41 -347 125 -465zM793 -85c84 117 125 274 125 465s-41 347 -125 465l19 15c108 -120 168 -290 168 -480s-60 -361 -168 -480zM292 52c4 42 5 97 5 150v585h90v-190
c0 -49 -1 -98 -3 -129h2c35 58 96 92 169 92c129 0 213 -110 213 -255c0 -151 -85 -265 -220 -265c-77 0 -134 40 -167 98h-2c0 -32 -2 -66 -5 -86h-82zM532 117c84 0 139 80 139 182c0 107 -50 183 -138 183c-81 0 -145 -81 -145 -184c0 -100 63 -181 144 -181z" />
    <glyph glyph-name="uni249E" unicode="&#x249e;" 
d="M188 -100c-108 120 -168 290 -168 480s60 361 168 480l19 -15c-84 -117 -125 -274 -125 -465s41 -347 125 -465zM793 -85c84 117 125 274 125 465s-41 347 -125 465l19 15c108 -120 168 -290 168 -480s-60 -361 -168 -480zM674 158c-35 -15 -78 -22 -121 -22
c-152 0 -253 103 -253 255c0 149 101 255 258 255c37 0 72 -5 105 -18l-6 -82c-29 14 -58 20 -92 20c-100 0 -167 -69 -167 -171c0 -106 66 -179 165 -179c36 0 65 6 103 25z" />
    <glyph glyph-name="uni249F" unicode="&#x249f;" 
d="M188 -100c-108 120 -168 290 -168 480s60 361 168 480l19 -15c-84 -117 -125 -274 -125 -465s41 -347 125 -465zM793 -85c84 117 125 274 125 465s-41 347 -125 465l19 15c108 -120 168 -290 168 -480s-60 -361 -168 -480zM634 50c-2 26 -3 53 -3 86h-2
c-38 -62 -91 -98 -168 -98c-133 0 -218 102 -218 257s89 263 219 263c73 0 131 -34 161 -87h2c-2 31 -3 75 -3 124v190h91v-585c0 -53 2 -108 6 -150h-85zM480 115c83 0 145 81 145 181c0 105 -61 184 -145 184c-80 0 -139 -79 -139 -184c0 -103 56 -181 139 -181z" />
    <glyph glyph-name="uni24A0" unicode="&#x24a0;" 
d="M188 -100c-108 120 -168 290 -168 480s60 361 168 480l19 -15c-84 -117 -125 -274 -125 -465s41 -347 125 -465zM793 -85c84 117 125 274 125 465s-41 347 -125 465l19 15c108 -120 168 -290 168 -480s-60 -361 -168 -480zM685 159c-45 -20 -94 -30 -154 -30
c-165 0 -259 100 -259 264c0 156 95 255 236 255c130 0 213 -79 213 -246c0 -9 -1 -26 -2 -36h-354c4 -100 72 -160 172 -160c57 0 100 15 145 37zM630 437c0 95 -52 141 -125 141s-130 -52 -138 -141h263z" />
    <glyph glyph-name="uni24A1" unicode="&#x24a1;" 
d="M188 -100c-108 120 -168 290 -168 480s60 361 168 480l19 -15c-84 -117 -125 -274 -125 -465s41 -347 125 -465zM793 -85c84 117 125 274 125 465s-41 347 -125 465l19 15c108 -120 168 -290 168 -480s-60 -361 -168 -480zM439 20v420h-118v73h118v46
c0 119 41 200 161 200c25 0 44 -2 69 -8l-8 -75c-16 4 -32 6 -46 6c-62 0 -84 -36 -84 -120v-49h133v-73h-133v-420h-92z" />
    <glyph glyph-name="uni24A2" unicode="&#x24a2;" 
d="M188 -100c-108 120 -168 290 -168 480s60 361 168 480l19 -15c-84 -117 -125 -274 -125 -465s41 -347 125 -465zM793 -85c84 117 125 274 125 465s-41 347 -125 465l19 15c108 -120 168 -290 168 -480s-60 -361 -168 -480zM646 280c-30 -50 -83 -90 -161 -90
c-131 0 -220 98 -220 246c0 156 91 262 226 262c73 0 129 -34 158 -87h3c-3 31 -3 50 -3 75h86v-475c0 -121 -59 -237 -241 -237c-69 0 -125 9 -190 33l10 91c62 -32 115 -46 176 -46c109 0 156 63 156 168c0 17 0 43 2 60h-2zM501 265c83 0 144 75 144 177
c0 101 -61 178 -144 178c-78 0 -137 -77 -137 -181c0 -103 53 -174 137 -174z" />
    <glyph glyph-name="uni24A3" unicode="&#x24a3;" 
d="M188 -100c-108 120 -168 290 -168 480s60 361 168 480l19 -15c-84 -117 -125 -274 -125 -465s41 -347 125 -465zM793 -85c84 117 125 274 125 465s-41 347 -125 465l19 15c108 -120 168 -290 168 -480s-60 -361 -168 -480zM644 50v245c0 97 -11 185 -116 185
c-49 0 -93 -28 -118 -70c-16 -28 -23 -65 -23 -123v-237h-93v734h93v-190c0 -48 -2 -102 -3 -128h1c35 54 93 91 165 91c140 0 185 -92 185 -224v-283h-91z" />
    <glyph glyph-name="uni24A4" unicode="&#x24a4;" 
d="M188 -100c-108 120 -168 290 -168 480s60 361 168 480l19 -15c-84 -117 -125 -274 -125 -465s41 -347 125 -465zM793 -85c84 117 125 274 125 465s-41 347 -125 465l19 15c108 -120 168 -290 168 -480s-60 -361 -168 -480zM449 626v103h102v-103h-102zM453 41v496h94
v-496h-94z" />
    <glyph glyph-name="uni24A5" unicode="&#x24a5;" 
d="M188 -100c-108 120 -168 290 -168 480s60 361 168 480l19 -15c-84 -117 -125 -274 -125 -465s41 -347 125 -465zM793 -85c84 117 125 274 125 465s-41 347 -125 465l19 15c108 -120 168 -290 168 -480s-60 -361 -168 -480zM471 721v103h103v-103h-103zM373 13
c13 -2 18 -2 26 -2c56 0 77 35 77 120v501h93v-513c0 -118 -46 -187 -154 -187c-13 0 -28 2 -42 6v75z" />
    <glyph glyph-name="uni24A6" unicode="&#x24a6;" 
d="M188 -100c-108 120 -168 290 -168 480s60 361 168 480l19 -15c-84 -117 -125 -274 -125 -465s41 -347 125 -465zM793 -85c84 117 125 274 125 465s-41 347 -125 465l19 15c108 -120 168 -290 168 -480s-60 -361 -168 -480zM632 41l-128 141c-32 36 -71 81 -99 117h-2
v-258h-94v734h94v-448h2c26 30 68 75 101 108l102 102h122l-234 -218l261 -278h-125z" />
    <glyph glyph-name="uni24A7" unicode="&#x24a7;" 
d="M188 -100c-108 120 -168 290 -168 480s60 361 168 480l19 -15c-84 -117 -125 -274 -125 -465s41 -347 125 -465zM793 -85c84 117 125 274 125 465s-41 347 -125 465l19 15c108 -120 168 -290 168 -480s-60 -361 -168 -480zM461 28v734h94v-734h-94z" />
    <glyph glyph-name="uni24A8" unicode="&#x24a8;" 
d="M188 -100c-108 120 -168 290 -168 480s60 361 168 480l19 -15c-84 -117 -125 -274 -125 -465s41 -347 125 -465zM793 -85c84 117 125 274 125 465s-41 347 -125 465l19 15c108 -120 168 -290 168 -480s-60 -361 -168 -480zM710 139v313c0 89 -21 119 -68 119
c-33 0 -59 -26 -73 -67c-9 -25 -14 -61 -14 -105v-260h-92v313c0 89 -20 119 -66 119c-34 0 -61 -26 -76 -67c-9 -25 -15 -61 -15 -105v-260h-91v349c0 53 0 105 -4 147h87c2 -22 2 -47 2 -72h2c26 51 59 84 122 84c58 0 94 -32 109 -94h1c30 66 74 94 138 94
c83 0 130 -52 130 -186v-322h-92z" />
    <glyph glyph-name="uni24A9" unicode="&#x24a9;" 
d="M188 -100c-108 120 -168 290 -168 480s60 361 168 480l19 -15c-84 -117 -125 -274 -125 -465s41 -347 125 -465zM793 -85c84 117 125 274 125 465s-41 347 -125 465l19 15c108 -120 168 -290 168 -480s-60 -361 -168 -480zM635 139v245c0 97 -10 185 -115 185
c-48 0 -93 -28 -119 -70c-15 -28 -23 -65 -23 -122v-238h-92v349c0 53 -1 105 -5 147h91c1 -22 3 -54 3 -80h2c37 57 94 92 166 92c139 0 184 -93 184 -224v-284h-92z" />
    <glyph glyph-name="uni24AA" unicode="&#x24aa;" 
d="M188 -100c-108 120 -168 290 -168 480s60 361 168 480l19 -15c-84 -117 -125 -274 -125 -465s41 -347 125 -465zM793 -85c84 117 125 274 125 465s-41 347 -125 465l19 15c108 -120 168 -290 168 -480s-60 -361 -168 -480zM506 130c-147 0 -255 107 -255 256
c0 156 106 263 258 263c146 0 252 -109 252 -263c0 -151 -106 -256 -255 -256zM508 206c90 0 156 72 156 180c0 111 -66 186 -159 186c-91 0 -156 -76 -156 -186c0 -109 64 -180 159 -180z" />
    <glyph glyph-name="uni24AB" unicode="&#x24ab;" 
d="M188 -100c-108 120 -168 290 -168 480s60 361 168 480l19 -15c-84 -117 -125 -274 -125 -465s41 -347 125 -465zM793 -85c84 117 125 274 125 465s-41 347 -125 465l19 15c108 -120 168 -290 168 -480s-60 -361 -168 -480zM299 -14v553c0 52 -1 104 -5 147h89
c1 -21 3 -55 3 -80h2c39 62 95 91 170 91c128 0 213 -101 213 -252c0 -158 -86 -267 -215 -267c-76 0 -136 41 -166 96h-2c2 -20 3 -94 3 -123v-165h-92zM536 255c85 0 139 82 139 181c0 110 -55 184 -139 184c-81 0 -146 -80 -146 -184c0 -99 65 -181 146 -181z" />
    <glyph glyph-name="uni24AC" unicode="&#x24ac;" 
d="M188 -100c-108 120 -168 290 -168 480s60 361 168 480l19 -15c-84 -117 -125 -274 -125 -465s41 -347 125 -465zM793 -85c84 117 125 274 125 465s-41 347 -125 465l19 15c108 -120 168 -290 168 -480s-60 -361 -168 -480zM625 -16v165c0 29 2 99 5 123h-3
c-42 -62 -95 -96 -165 -96c-132 0 -219 110 -219 268c0 153 84 251 218 251c78 0 132 -30 168 -91h1c0 22 3 55 6 80h84c-1 -22 -2 -50 -2 -76v-624h-93zM479 253c82 0 144 82 144 181c0 107 -63 184 -148 184c-80 0 -135 -75 -135 -175c0 -108 56 -190 139 -190z" />
    <glyph glyph-name="uni24AD" unicode="&#x24ad;" 
d="M188 -100c-108 120 -168 290 -168 480s60 361 168 480l19 -15c-84 -117 -125 -274 -125 -465s41 -347 125 -465zM793 -85c84 117 125 274 125 465s-41 347 -125 465l19 15c108 -120 168 -290 168 -480s-60 -361 -168 -480zM385 139v349c0 53 -1 105 -5 147h92
c2 -25 3 -58 3 -84h2c29 57 76 96 139 96c19 0 36 -2 48 -7v-87c-12 5 -29 8 -49 8c-86 0 -138 -71 -138 -198v-224h-92z" />
    <glyph glyph-name="uni24AE" unicode="&#x24ae;" 
d="M188 -100c-108 120 -168 290 -168 480s60 361 168 480l19 -15c-84 -117 -125 -274 -125 -465s41 -347 125 -465zM793 -85c84 117 125 274 125 465s-41 347 -125 465l19 15c108 -120 168 -290 168 -480s-60 -361 -168 -480zM359 238c37 -22 79 -32 120 -32
c53 0 93 25 93 68c0 39 -26 58 -103 94c-83 40 -114 75 -114 138c0 89 72 144 174 144c42 0 84 -8 114 -21l-8 -76c-35 17 -69 24 -105 24c-46 0 -82 -22 -82 -63c0 -40 28 -57 91 -84c92 -41 126 -83 126 -149c0 -99 -75 -150 -180 -150c-50 0 -91 8 -134 24z" />
    <glyph glyph-name="uni24AF" unicode="&#x24af;" 
d="M188 -100c-108 120 -168 290 -168 480s60 361 168 480l19 -15c-84 -117 -125 -274 -125 -465s41 -347 125 -465zM793 -85c84 117 125 274 125 465s-41 347 -125 465l19 15c108 -120 168 -290 168 -480s-60 -361 -168 -480zM665 99c-23 -9 -51 -13 -79 -13
c-126 0 -154 75 -154 183v243h-114v72h114v117l91 31v-148h133v-72h-133v-218c0 -79 10 -133 85 -133c20 0 36 3 54 11z" />
    <glyph glyph-name="uni24B0" unicode="&#x24b0;" 
d="M188 -100c-108 120 -168 290 -168 480s60 361 168 480l19 -15c-84 -117 -125 -274 -125 -465s41 -347 125 -465zM793 -85c84 117 125 274 125 465s-41 347 -125 465l19 15c108 -120 168 -290 168 -480s-60 -361 -168 -480zM633 139c-3 21 -4 46 -4 78h-2
c-26 -41 -76 -90 -171 -90c-111 0 -179 78 -179 198v310h92v-245c0 -104 11 -186 113 -186c47 0 84 22 108 58c21 32 34 73 34 117v256h92v-348c0 -52 0 -107 5 -148h-88z" />
    <glyph glyph-name="uni24B1" unicode="&#x24b1;" 
d="M188 -100c-108 120 -168 290 -168 480s60 361 168 480l19 -15c-84 -117 -125 -274 -125 -465s41 -347 125 -465zM793 -85c84 117 125 274 125 465s-41 347 -125 465l19 15c108 -120 168 -290 168 -480s-60 -361 -168 -480zM447 141l-178 495h100l101 -302
c11 -31 26 -85 35 -120h2c10 35 28 91 37 120l101 302h93l-182 -495h-109z" />
    <glyph glyph-name="uni24B2" unicode="&#x24b2;" 
d="M188 -100c-108 120 -168 290 -168 480s60 361 168 480l19 -15c-84 -117 -125 -274 -125 -465s41 -347 125 -465zM793 -85c84 117 125 274 125 465s-41 347 -125 465l19 15c108 -120 168 -290 168 -480s-60 -361 -168 -480zM597 126l-72 310c-5 21 -16 77 -21 106h-2
c-4 -29 -16 -83 -22 -106l-72 -310h-111l-120 495h95l63 -294c7 -31 13 -82 19 -116h2c6 34 16 85 23 115l68 295h112l67 -295c7 -32 18 -86 25 -115h1c5 34 15 86 21 114l65 296h89l-122 -495h-108z" />
    <glyph glyph-name="uni24B3" unicode="&#x24b3;" 
d="M188 -100c-108 120 -168 290 -168 480s60 361 168 480l19 -15c-84 -117 -125 -274 -125 -465s41 -347 125 -465zM793 -85c84 117 125 274 125 465s-41 347 -125 465l19 15c108 -120 168 -290 168 -480s-60 -361 -168 -480zM626 138l-65 107c-12 19 -45 73 -58 100h-1
c-13 -25 -45 -76 -59 -100l-65 -107h-109l179 260l-166 235h113l59 -97c12 -20 37 -61 53 -92h1c16 29 43 75 53 92l58 97h103l-160 -235l175 -260h-111z" />
    <glyph glyph-name="uni24B4" unicode="&#x24b4;" 
d="M188 -100c-108 120 -168 290 -168 480s60 361 168 480l19 -15c-84 -117 -125 -274 -125 -465s41 -347 125 -465zM793 -85c84 117 125 274 125 465s-41 347 -125 465l19 15c108 -120 168 -290 168 -480s-60 -361 -168 -480zM334 82c14 -4 28 -8 43 -8c54 0 77 29 108 121
l-187 517h100l100 -300c11 -31 27 -87 36 -121h2c10 34 27 92 37 121l101 300h93l-176 -491c-60 -167 -106 -220 -207 -220c-15 0 -36 1 -56 8z" />
    <glyph glyph-name="uni24B5" unicode="&#x24b5;" 
d="M188 -100c-108 120 -168 290 -168 480s60 361 168 480l19 -15c-84 -117 -125 -274 -125 -465s41 -347 125 -465zM793 -85c84 117 125 274 125 465s-41 347 -125 465l19 15c108 -120 168 -290 168 -480s-60 -361 -168 -480zM305 141v80c220 261 274 323 295 343h-281v72
h382v-81c-194 -230 -267 -313 -293 -341h302v-73h-405z" />
    <glyph glyph-name="Japan1.8184" 
d="M214 -39l478 817h71l-478 -817h-71zM198 287v221c0 47 1 108 6 147h-2c-11 -12 -40 -40 -76 -71l-43 54l125 102h75v-453h-85zM603 -16v72c122 107 200 188 200 254c0 42 -28 64 -75 64c-33 0 -67 -12 -103 -31l-11 72c36 17 82 28 129 28c88 0 148 -46 148 -125
c0 -58 -26 -109 -113 -198c-34 -34 -57 -52 -82 -69v-2c48 1 113 2 143 2h64v-67h-300z" />
    <glyph glyph-name="Japan1.8185" 
d="M219 -39l478 817h71l-478 -817h-71zM203 287v221c0 47 1 108 6 147h-2c-11 -12 -40 -40 -76 -71l-43 54l125 102h75v-453h-85zM801 -16v94h-207v70l172 289h113v-295h60v-64h-60v-94h-78zM801 238c0 38 0 97 2 142h-2c-11 -22 -39 -75 -65 -121l-68 -117h133v96z" />
    <glyph glyph-name="uni24EA" unicode="&#x24ea;" 
d="M500 -93c-261 0 -473 212 -473 473s212 473 473 473c260 0 472 -212 472 -473s-212 -473 -472 -473zM934 380c0 240 -194 435 -434 435c-241 0 -435 -195 -435 -435s194 -435 435 -435c240 0 434 195 434 435zM502 74c-149 0 -206 131 -206 306c0 196 69 304 209 304
c134 0 203 -108 203 -308c0 -171 -57 -302 -206 -302zM503 151c69 0 106 78 106 229c0 149 -39 228 -107 228c-69 0 -107 -79 -107 -227c0 -152 38 -230 108 -230z" />
    <glyph glyph-name="uni216A" unicode="&#x216a;" 
d="M557 -16l-121 196c-23 38 -55 89 -74 124c-20 -35 -52 -88 -74 -124l-119 -196h-119l252 393l-234 361h121l108 -175c13 -22 55 -87 72 -117c17 30 58 97 70 117l103 175h114l-226 -361l253 -393h-126zM773 -16v754h106v-754h-106z" />
    <glyph glyph-name="uni216B" unicode="&#x216b;" 
d="M393 -16l-58 155c-21 56 -48 124 -63 167c-15 -39 -40 -109 -61 -163l-62 -159h-107l156 391l-140 363h112l46 -118c21 -56 45 -124 60 -172c15 48 42 121 62 171l47 119h106l-142 -354l157 -400h-113zM577 -16v754h105v-754h-105zM803 -16v754h105v-754h-105z" />
    <glyph glyph-name="Japan1.8227" 
d="M188 -100c-108 120 -168 290 -168 480s60 361 168 480l19 -15c-84 -117 -125 -274 -125 -465s41 -347 125 -465zM793 -85c84 117 125 274 125 465s-41 347 -125 465l19 15c108 -120 168 -290 168 -480s-60 -361 -168 -480zM506 -12c-189 0 -255 176 -255 394
c0 246 88 387 259 387c166 0 252 -141 252 -397c0 -208 -68 -384 -256 -384zM509 77c93 0 143 104 143 303c0 194 -53 300 -145 300c-93 0 -146 -106 -146 -299c0 -200 53 -304 148 -304z" />
    <glyph glyph-name="Japan1.8228" 
d="M755 354c0 -208 -68 -384 -256 -384c-189 0 -255 176 -255 394c0 246 88 387 259 387c166 0 252 -141 252 -397zM354 363c0 -93 11 -165 33 -216l182 489c-19 17 -43 26 -69 26c-93 0 -146 -106 -146 -299zM645 362c0 91 -12 162 -34 213l-182 -489c20 -18 45 -27 73 -27
c93 0 143 104 143 303z" />
    <glyph glyph-name="uni2776" unicode="&#x2776;" 
d="M500 -93c-261 0 -473 212 -473 473s212 473 473 473c260 0 472 -212 472 -473s-212 -473 -472 -473zM563 673h-88l-155 -123l51 -65l30 25c31 25 53 46 67 59h1c-1 -31 -4 -109 -4 -159v-325h98v588z" />
    <glyph glyph-name="uni2777" unicode="&#x2777;" 
d="M500 -93c-261 0 -473 212 -473 473s212 473 473 473c260 0 472 -212 472 -473s-212 -473 -472 -473zM702 164h-112c-51 0 -124 -1 -176 -3v2c35 25 76 56 124 103c112 109 151 177 151 251c0 109 -84 167 -195 167c-62 0 -119 -13 -166 -35l11 -85c48 28 92 41 135 41
c63 0 112 -30 112 -97c0 -85 -77 -169 -270 -332v-91h386v79z" />
    <glyph glyph-name="uni2778" unicode="&#x2778;" 
d="M500 -93c-261 0 -473 212 -473 473s212 473 473 473c260 0 472 -212 472 -473s-212 -473 -472 -473zM710 244c0 84 -64 139 -152 147v2c85 9 145 59 145 136c0 96 -78 155 -204 155c-49 0 -102 -8 -150 -26l6 -80c47 21 89 31 134 31c69 0 119 -31 119 -89
c0 -63 -65 -94 -170 -94h-25v-75c9 1 20 1 27 1c110 0 170 -33 170 -100c0 -69 -57 -103 -131 -103c-46 0 -89 10 -143 33l-5 -85c50 -16 102 -23 151 -23c138 0 228 68 228 170z" />
    <glyph glyph-name="uni2779" unicode="&#x2779;" 
d="M500 -93c-261 0 -473 212 -473 473s212 473 473 473c260 0 472 -212 472 -473s-212 -473 -472 -473zM620 211h80v77h-80v385h-127l-241 -383v-79h276v-126h92v126zM343 288l114 186c22 37 56 98 74 133h1c-3 -64 -4 -129 -4 -179v-140h-185z" />
    <glyph glyph-name="uni277A" unicode="&#x277a;" 
d="M500 -93c-261 0 -473 212 -473 473s212 473 473 473c260 0 472 -212 472 -473s-212 -473 -472 -473zM705 275c0 112 -86 181 -204 181c-25 0 -44 -1 -68 -7l6 147h246v77h-334l-5 -311c40 13 80 21 118 21c88 0 143 -38 143 -115c0 -76 -60 -118 -141 -118
c-39 0 -80 8 -123 27l-2 -85c42 -12 89 -18 129 -18c142 0 235 78 235 201z" />
    <glyph glyph-name="uni277B" unicode="&#x277b;" 
d="M500 -93c-261 0 -473 212 -473 473s212 473 473 473c260 0 472 -212 472 -473s-212 -473 -472 -473zM659 667c-37 12 -76 17 -118 17c-163 0 -256 -119 -256 -325c0 -185 73 -285 211 -285c127 0 201 90 201 203c0 105 -69 184 -177 184c-53 0 -111 -23 -140 -66h-2
c4 134 66 214 168 214c35 0 67 -6 104 -21zM495 145c-60 0 -107 57 -107 129c0 64 49 116 108 116c74 0 105 -54 105 -122c0 -67 -39 -123 -106 -123z" />
    <glyph glyph-name="uni277C" unicode="&#x277c;" 
d="M500 -93c-261 0 -473 212 -473 473s212 473 473 473c260 0 472 -212 472 -473s-212 -473 -472 -473zM707 591v82h-387v-80h288l-224 -508h106z" />
    <glyph glyph-name="uni277D" unicode="&#x277d;" 
d="M500 -93c-261 0 -473 212 -473 473s212 473 473 473c260 0 472 -212 472 -473s-212 -473 -472 -473zM582 399c76 34 114 76 114 139c0 91 -79 146 -193 146c-121 0 -200 -59 -200 -150c0 -63 30 -104 117 -139c-88 -36 -130 -84 -130 -156c0 -103 84 -164 209 -164
c123 0 217 63 217 169c0 75 -42 122 -134 155zM512 430c-68 23 -113 49 -113 104c0 51 48 81 101 81c55 0 97 -29 97 -85c0 -45 -28 -75 -85 -100zM490 357c80 -26 126 -58 126 -115c0 -59 -52 -94 -116 -94c-65 0 -111 36 -111 95c0 54 34 91 101 114z" />
    <glyph glyph-name="uni277E" unicode="&#x277e;" 
d="M500 -93c-261 0 -473 212 -473 473s212 473 473 473c260 0 472 -212 472 -473s-212 -473 -472 -473zM632 369c-3 -134 -63 -218 -168 -218c-38 0 -73 8 -111 25l-10 -80c40 -13 81 -19 126 -19c165 0 256 122 256 327c0 185 -73 280 -210 280c-127 0 -200 -89 -200 -202
c0 -105 67 -179 176 -179c53 0 110 22 138 66h3zM621 488c0 -64 -42 -113 -104 -113c-71 0 -106 49 -106 116c0 68 39 123 107 123c59 0 103 -53 103 -126z" />
    <glyph glyph-name="Japan1.8295" 
d="M346 -16l-55 155c-19 56 -45 125 -59 168c-14 -39 -37 -110 -57 -164l-59 -159h-100l149 391l-134 363h105l43 -118c20 -56 43 -125 57 -173c14 48 39 122 58 172l44 119h100l-136 -354l150 -400h-106zM489 -16v754h99v-754h-99zM664 -16v754h99v-754h-99zM839 -16v754
h99v-754h-99z" />
    <glyph glyph-name="Japan1.8296" 
d="M330 -16l-50 155c-18 56 -42 125 -55 168l-54 -164l-53 -159h-94l138 391l-124 363h98l39 -118c19 -56 40 -125 53 -173c14 48 39 122 55 172l39 119h94l-126 -354l139 -400h-99zM464 -16v754h93v-754h-93zM725 -16l-133 754h92l78 -454c9 -52 19 -144 23 -179h2
c4 37 15 127 24 179l75 454h96l-137 -754h-120z" />
    <glyph glyph-name="Japan1.8297" 
d="M387 -16l-58 155c-21 56 -48 124 -63 167c-15 -39 -40 -109 -61 -163l-62 -159h-107l156 391l-140 363h112l46 -118c21 -56 45 -124 60 -172c15 48 42 121 62 171l47 119h106l-142 -354l157 -400h-113zM674 -16l-158 754h105l94 -454c11 -52 23 -144 27 -179h2
c4 37 18 127 28 179l89 454h109l-160 -754h-136z" />
    <glyph glyph-name="uni217A" unicode="&#x217a;" 
d="M734 634v114h114v-114h-114zM508 -16l-72 119c-14 22 -50 82 -65 111h-1c-15 -27 -50 -84 -66 -111l-72 -119h-121l199 289l-184 262h125l66 -108c13 -22 41 -68 59 -102h1c17 32 47 83 58 102l65 108h114l-177 -262l194 -289h-123zM739 -16v551h104v-551h-104z" />
    <glyph glyph-name="uni217B" unicode="&#x217b;" 
d="M552 642v105h107v-105h-107zM783 642v105h107v-105h-107zM357 -16l-41 90c-16 35 -41 95 -55 132h-1c-16 -39 -43 -102 -55 -128l-44 -94h-105l139 284l-128 267h112l50 -111c11 -25 29 -72 37 -93h1c8 22 28 69 39 93l50 111h105l-130 -270l138 -281h-112zM555 -16v551
h101v-551h-101zM786 -16v551h101v-551h-101z" />
    <glyph glyph-name="Japan1.8300" 
d="M464 642v105h103v-105h-103zM644 642v105h103v-105h-103zM824 642v105h103v-105h-103zM314 -16l-39 90c-16 35 -40 95 -53 132h-1c-15 -39 -41 -102 -53 -128l-42 -94h-101l134 284l-123 267h107l48 -111c11 -25 28 -72 36 -93h1c7 22 27 69 37 93l48 111h101l-125 -270
l133 -281h-108zM467 -16v551h97v-551h-97zM647 -16v551h97v-551h-97zM827 -16v551h97v-551h-97z" />
    <glyph glyph-name="Japan1.8301" 
d="M447 642v105h99v-105h-99zM306 -16l-37 90c-15 35 -38 95 -51 132h-1c-14 -39 -40 -102 -51 -128l-40 -94h-97l129 284l-119 267h103l46 -111c11 -25 27 -72 35 -93h1c7 22 25 69 35 93l46 111h97l-120 -270l128 -281h-104zM450 -16v551h93v-551h-93zM727 -16l-142 551
h95l76 -315c8 -35 19 -86 26 -122h2c5 36 18 91 25 122l74 315h93l-144 -551h-105z" />
    <glyph glyph-name="Japan1.8302" 
d="M364 -16l-41 90c-16 35 -41 95 -55 132h-1c-16 -39 -43 -102 -55 -128l-44 -94h-105l139 284l-128 267h112l50 -111c11 -25 29 -72 37 -93h1c8 22 28 69 39 93l50 111h105l-130 -270l138 -281h-112zM669 -16l-155 551h104l82 -313c9 -35 21 -88 28 -124h2
c6 36 20 93 28 124l80 313h102l-157 -551h-114z" />
  </font>
</defs>
</svg>
