<?xml version="1.0" standalone="no"?>
<!DOCTYPE svg PUBLIC "-//W3C//DTD SVG 1.1//EN" "http://www.w3.org/Graphics/SVG/1.1/DTD/svg11.dtd" >
<svg>
<metadata>
Created by FontForge 20120731 at Sun Sep 29 06:35:18 2019
 By www-data
</metadata>
<defs>
<font id="TazuganeGothicStdN-Book-AlphaNum" horiz-adv-x="1000" vert-adv-y="1000" >
  <font-face 
    font-family="(null)"
    font-weight="400"
    font-stretch="normal"
    units-per-em="1000"
    panose-1="2 0 5 3 0 0 0 0 0 0"
    ascent="800"
    descent="-200"
    x-height="534"
    cap-height="738"
    bbox="22 -100 981 860"
    underline-thickness="50"
    underline-position="-100"
    stemh="34"
    stemv="55"
    unicode-range="U+2160-1F100"
  />
    <missing-glyph />
    <glyph glyph-name="uni2460" unicode="&#x2460;" 
d="M500 -90c-260 0 -470 210 -470 470s210 470 470 470c259 0 470 -210 470 -470s-211 -470 -470 -470zM935 380c0 241 -194 436 -435 436s-436 -195 -436 -436s195 -436 436 -436s435 195 435 436zM472 88v327c0 54 2 130 3 168h-1c-18 -17 -41 -38 -69 -61l-30 -25l-43 55
l147 118h75v-582h-82z" />
    <glyph glyph-name="uni2461" unicode="&#x2461;" 
d="M500 -90c-260 0 -470 210 -470 470s210 470 470 470c259 0 470 -210 470 -470s-211 -470 -470 -470zM935 380c0 241 -194 436 -435 436s-436 -195 -436 -436s195 -436 436 -436s435 195 435 436zM320 88v76c193 161 276 256 276 346c0 71 -48 103 -116 103
c-42 0 -88 -13 -134 -41l-10 73c46 22 101 35 160 35c109 0 187 -56 187 -163c0 -79 -46 -153 -153 -257c-50 -49 -91 -80 -126 -105v-3c45 2 110 3 154 3h136v-67h-374z" />
    <glyph glyph-name="uni2462" unicode="&#x2462;" 
d="M500 -90c-260 0 -470 210 -470 470s210 470 470 470c259 0 470 -210 470 -470s-211 -470 -470 -470zM935 380c0 241 -194 436 -435 436s-436 -195 -436 -436s195 -436 436 -436s435 195 435 436zM703 247c0 -104 -89 -169 -222 -169c-47 0 -97 7 -146 23l5 72
c52 -22 94 -31 139 -31c77 0 140 34 140 111c0 72 -62 105 -174 105c-8 0 -21 0 -29 -1v64h28c106 0 173 31 173 100c0 64 -55 95 -125 95c-44 0 -85 -9 -132 -30l-6 68c48 18 98 26 147 26c119 0 196 -56 196 -151c0 -80 -61 -128 -145 -136v-2c85 -7 151 -58 151 -144z
" />
    <glyph glyph-name="uni2463" unicode="&#x2463;" 
d="M500 -90c-260 0 -470 210 -470 470s210 470 470 470c259 0 470 -210 470 -470s-211 -470 -470 -470zM935 380c0 241 -194 436 -435 436s-436 -195 -436 -436s195 -436 436 -436s435 195 435 436zM534 88v130h-277v67l248 385h107v-387h81v-65h-81v-130h-78zM534 434
c0 50 1 114 4 179h-1c-19 -34 -53 -93 -77 -132l-126 -198h200v151z" />
    <glyph glyph-name="uni2464" unicode="&#x2464;" 
d="M500 -90c-260 0 -470 210 -470 470s210 470 470 470c259 0 470 -210 470 -470s-211 -470 -470 -470zM935 380c0 241 -194 436 -435 436s-436 -195 -436 -436s195 -436 436 -436s435 195 435 436zM347 169c40 -18 83 -26 122 -26c87 0 148 46 148 126
c0 79 -55 120 -147 120c-39 0 -80 -8 -118 -21l5 301h320v-65h-246l-6 -161c25 7 47 9 75 9c119 0 200 -68 200 -178c0 -119 -88 -196 -227 -196c-41 0 -87 6 -129 19z" />
    <glyph glyph-name="uni2465" unicode="&#x2465;" 
d="M500 -90c-260 0 -470 210 -470 470s210 470 470 470c259 0 470 -210 470 -470s-211 -470 -470 -470zM935 380c0 241 -194 436 -435 436s-436 -195 -436 -436s195 -436 436 -436s435 195 435 436zM649 596c-35 14 -67 20 -101 20c-113 0 -173 -93 -177 -233h2
c29 48 87 74 144 74c107 0 174 -76 174 -182c0 -111 -74 -197 -195 -197c-135 0 -203 101 -203 275c0 198 85 327 251 327c40 0 78 -5 113 -17zM495 139c71 0 115 56 115 129c0 75 -37 128 -113 128c-62 0 -116 -52 -116 -122c0 -75 48 -135 114 -135z" />
    <glyph glyph-name="uni2466" unicode="&#x2466;" 
d="M500 -90c-260 0 -470 210 -470 470s210 470 470 470c259 0 470 -210 470 -470s-211 -470 -470 -470zM935 380c0 241 -194 436 -435 436s-436 -195 -436 -436s195 -436 436 -436s435 195 435 436zM391 88l225 514h-288v68h371v-70l-218 -512h-90z" />
    <glyph glyph-name="uni2467" unicode="&#x2467;" 
d="M500 -90c-260 0 -470 210 -470 470s210 470 470 470c259 0 470 -210 470 -470s-211 -470 -470 -470zM935 380c0 241 -194 436 -435 436s-436 -195 -436 -436s195 -436 436 -436s435 195 435 436zM571 396c94 -33 137 -79 137 -153c0 -103 -89 -164 -208 -164
c-120 0 -202 57 -202 159c0 74 46 121 134 155c-85 33 -120 74 -120 139c0 90 78 148 193 148c108 0 184 -54 184 -143c0 -66 -40 -109 -118 -141zM510 423c63 25 96 56 96 108c0 58 -44 90 -104 90c-58 0 -109 -33 -109 -88c0 -60 47 -86 117 -110zM493 361
c-74 -24 -112 -62 -112 -119c0 -65 50 -101 120 -101c68 0 123 37 123 100c0 58 -44 92 -131 120z" />
    <glyph glyph-name="uni2468" unicode="&#x2468;" 
d="M500 -90c-260 0 -470 210 -470 470s210 470 470 470c259 0 470 -210 470 -470s-211 -470 -470 -470zM935 380c0 241 -194 436 -435 436s-436 -195 -436 -436s195 -436 436 -436s435 195 435 436zM356 167c36 -16 71 -23 107 -23c115 0 174 96 176 236h-2
c-28 -49 -85 -74 -142 -74c-108 0 -173 72 -173 177c0 112 72 197 193 197c135 0 203 -97 203 -271c0 -198 -84 -329 -251 -329c-42 0 -82 6 -120 19zM629 487c0 76 -46 133 -111 133c-71 0 -115 -56 -115 -130s40 -123 113 -123c64 0 113 50 113 120z" />
    <glyph glyph-name="uni2469" unicode="&#x2469;" 
d="M500 -90c-260 0 -470 210 -470 470s210 470 470 470c259 0 470 -210 470 -470s-211 -470 -470 -470zM935 380c0 241 -194 436 -435 436s-436 -195 -436 -436s195 -436 436 -436s435 195 435 436zM642 81c-111 0 -170 106 -170 296c0 193 54 299 170 299
c113 0 170 -104 170 -297c0 -190 -59 -298 -170 -298zM305 88v307c0 61 1 146 2 198h-1c-26 -25 -48 -43 -65 -55l-29 -24l-37 51l136 105h68v-582h-74zM641 147c61 0 95 79 95 232c0 161 -32 234 -95 234c-62 0 -95 -75 -95 -236c0 -154 33 -230 95 -230z" />
    <glyph glyph-name="uni246A" unicode="&#x246a;" 
d="M500 -90c-260 0 -470 210 -470 470s210 470 470 470c259 0 470 -210 470 -470s-211 -470 -470 -470zM935 380c0 241 -194 436 -435 436s-436 -195 -436 -436s195 -436 436 -436s435 195 435 436zM348 88v307c0 61 0 146 2 198h-2c-25 -25 -48 -43 -64 -55l-30 -24l-36 51
l136 105h67v-582h-73zM638 88v307c0 61 1 146 2 198h-1c-26 -25 -48 -43 -64 -55l-31 -24l-36 51l136 105h68v-582h-74z" />
    <glyph glyph-name="uni246B" unicode="&#x246b;" 
d="M500 -90c-260 0 -470 210 -470 470s210 470 470 470c259 0 470 -210 470 -470s-211 -470 -470 -470zM935 380c0 241 -194 436 -435 436s-436 -195 -436 -436s195 -436 436 -436s435 195 435 436zM470 89v63c136 132 225 248 225 351c0 71 -35 103 -97 103
c-31 0 -67 -9 -102 -30l-8 71c38 20 85 31 126 31c89 0 157 -45 157 -160c0 -97 -46 -174 -111 -255c-38 -45 -78 -81 -106 -104v-3c25 1 63 3 92 3h130v-70h-306zM311 88v307c0 61 1 146 2 198h-1c-26 -25 -48 -43 -65 -55l-30 -24l-36 51l136 105h68v-582h-74z" />
    <glyph glyph-name="uni246C" unicode="&#x246c;" 
d="M500 -90c-260 0 -470 210 -470 470s210 470 470 470c259 0 470 -210 470 -470s-211 -470 -470 -470zM935 380c0 241 -194 436 -435 436s-436 -195 -436 -436s195 -436 436 -436s435 195 435 436zM479 167c35 -15 69 -21 102 -21c68 0 124 30 124 109
c0 74 -48 102 -130 102c-10 0 -25 0 -34 -1v63c12 -1 26 -2 37 -2c72 0 122 32 122 103c0 66 -46 93 -103 93c-37 0 -67 -8 -103 -23l-6 63c42 17 80 24 123 24c92 0 165 -46 165 -145c0 -85 -53 -124 -113 -139v-1c65 -12 118 -49 118 -139c0 -114 -82 -171 -192 -171
c-38 0 -77 4 -113 17zM311 88v307c0 61 1 146 2 198h-1c-26 -25 -48 -43 -65 -55l-30 -24l-36 51l136 105h68v-582h-74z" />
    <glyph glyph-name="uni246D" unicode="&#x246d;" 
d="M500 -90c-260 0 -470 210 -470 470s210 470 470 470c259 0 470 -210 470 -470s-211 -470 -470 -470zM935 380c0 241 -194 436 -435 436s-436 -195 -436 -436s195 -436 436 -436s435 195 435 436zM303 88v307c0 61 0 146 2 198h-2c-25 -25 -48 -43 -64 -55l-29 -24l-37 51
l136 105h67v-582h-73zM669 88v133h-218v67l198 382h91v-387h70v-62h-70v-133h-71zM671 399c0 52 1 121 4 192h-1c-24 -50 -57 -121 -80 -162l-78 -146h155v116z" />
    <glyph glyph-name="uni246E" unicode="&#x246e;" 
d="M500 -90c-260 0 -470 210 -470 470s210 470 470 470c259 0 470 -210 470 -470s-211 -470 -470 -470zM935 380c0 241 -194 436 -435 436s-436 -195 -436 -436s195 -436 436 -436s435 195 435 436zM312 88v307c0 61 1 146 2 198h-1c-26 -25 -48 -43 -64 -55l-31 -24l-36 51
l136 105h68v-582h-74zM494 162c29 -10 60 -16 96 -16c81 0 123 48 123 127c0 74 -37 114 -118 114c-33 0 -62 -6 -93 -16l4 298h258v-64h-197l-2 -165c20 6 39 8 64 8c103 0 159 -64 159 -172c0 -127 -77 -194 -192 -194c-39 0 -74 4 -106 13z" />
    <glyph glyph-name="uni246F" unicode="&#x246f;" 
d="M500 -90c-260 0 -470 210 -470 470s210 470 470 470c259 0 470 -210 470 -470s-211 -470 -470 -470zM935 380c0 241 -194 436 -435 436s-436 -195 -436 -436s195 -436 436 -436s435 195 435 436zM536 381c21 41 61 69 118 69c85 0 136 -63 136 -173
c0 -118 -65 -195 -162 -195c-120 0 -169 104 -169 259c0 186 59 335 216 335c30 0 65 -4 93 -13l-7 -63c-27 11 -53 15 -80 15c-106 0 -144 -105 -147 -234h2zM298 88v307c0 61 1 146 2 198h-1c-27 -25 -49 -43 -65 -55l-30 -24l-37 51l136 105h69v-582h-74zM627 142
c59 0 89 57 89 127c0 77 -29 122 -85 122c-51 0 -91 -46 -91 -115c0 -73 27 -134 87 -134z" />
    <glyph glyph-name="uni2470" unicode="&#x2470;" 
d="M500 -90c-260 0 -470 210 -470 470s210 470 470 470c259 0 470 -210 470 -470s-211 -470 -470 -470zM935 380c0 241 -194 436 -435 436s-436 -195 -436 -436s195 -436 436 -436s435 195 435 436zM325 88v307c0 61 0 146 2 198h-2c-25 -25 -48 -43 -64 -55l-30 -24l-36 51
l136 105h67v-582h-73zM535 88l176 515h-220v67h293v-68l-173 -514h-76z" />
    <glyph glyph-name="uni2471" unicode="&#x2471;" 
d="M500 -90c-260 0 -470 210 -470 470s210 470 470 470c259 0 470 -210 470 -470s-211 -470 -470 -470zM935 380c0 241 -194 436 -435 436s-436 -195 -436 -436s195 -436 436 -436s435 195 435 436zM688 392c73 -38 113 -80 113 -154c0 -102 -70 -156 -166 -156
s-166 52 -166 152c0 79 46 122 112 153c-61 32 -97 72 -97 145c0 92 68 144 155 144c84 0 148 -48 148 -138c0 -73 -40 -118 -99 -146zM305 88v307c0 61 1 146 2 198h-1c-26 -25 -48 -43 -65 -55l-30 -24l-36 51l136 105h68v-582h-74zM637 417c52 23 82 57 82 114
c0 53 -29 87 -81 87c-54 0 -85 -35 -85 -91c0 -59 32 -86 84 -110zM633 357c-55 -25 -90 -64 -90 -119c0 -64 36 -97 92 -97c53 0 93 34 93 96c0 51 -24 88 -95 120z" />
    <glyph glyph-name="uni2472" unicode="&#x2472;" 
d="M500 -90c-260 0 -470 210 -470 470s210 470 470 470c259 0 470 -210 470 -470s-211 -470 -470 -470zM935 380c0 241 -194 436 -435 436s-436 -195 -436 -436s195 -436 436 -436s435 195 435 436zM505 157c27 -10 53 -13 81 -13c107 0 143 105 145 232h-2
c-21 -40 -60 -68 -117 -68c-85 0 -137 63 -137 173c0 118 66 195 163 195c121 0 169 -104 169 -259c0 -184 -57 -335 -216 -335c-30 0 -65 4 -92 13zM307 88v307c0 61 0 146 2 198h-2c-25 -25 -48 -43 -64 -55l-30 -24l-36 51l136 105h67v-582h-73zM727 483
c0 73 -29 133 -88 133c-60 0 -90 -58 -90 -127c0 -77 32 -122 86 -122c50 0 92 47 92 116z" />
    <glyph glyph-name="uni2473" unicode="&#x2473;" 
d="M500 -90c-260 0 -470 210 -470 470s210 470 470 470c259 0 470 -210 470 -470s-211 -470 -470 -470zM935 380c0 241 -194 436 -435 436s-436 -195 -436 -436s195 -436 436 -436s435 195 435 436zM200 89v62c123 132 208 248 208 353c0 69 -34 102 -91 102
c-30 0 -60 -9 -94 -28l-6 71c35 19 77 28 115 28c84 0 150 -44 150 -158c0 -97 -42 -175 -102 -255c-34 -45 -71 -82 -96 -105v-3c24 1 60 3 88 3h115v-70h-287zM691 81c-106 0 -162 104 -162 296c0 194 51 299 163 299c106 0 158 -105 158 -297s-55 -298 -159 -298z
M689 147c57 0 87 79 87 232c0 159 -28 234 -86 234c-57 0 -87 -75 -87 -236c0 -154 30 -230 86 -230z" />
    <glyph glyph-name="uni2160" unicode="&#x2160;" 
d="M454 -16v754h92v-754h-92z" />
    <glyph glyph-name="uni2161" unicode="&#x2161;" 
d="M286 -16v754h93v-754h-93zM623 -16v754h92v-754h-92z" />
    <glyph glyph-name="uni2162" unicode="&#x2162;" 
d="M137 -16v754h93v-754h-93zM454 -16v754h92v-754h-92zM769 -16v754h93v-754h-93z" />
    <glyph glyph-name="uni2163" unicode="&#x2163;" 
d="M117 -16v754h89v-754h-89zM577 -16l-260 754h94l179 -539c12 -35 29 -95 42 -136h3c11 41 29 102 40 136l178 539h91l-260 -754h-107z" />
    <glyph glyph-name="uni2164" unicode="&#x2164;" 
d="M446 -16l-287 754h99l195 -542c12 -35 35 -99 48 -140h3c13 41 36 106 48 140l193 542h96l-287 -754h-108z" />
    <glyph glyph-name="uni2165" unicode="&#x2165;" 
d="M316 -16l-260 754h94l179 -539c11 -35 29 -95 42 -136h2c12 41 30 102 41 136l177 539h92l-260 -754h-107zM794 -16v754h89v-754h-89z" />
    <glyph glyph-name="uni2166" unicode="&#x2166;" 
d="M233 -16l-164 754h89l105 -481c10 -48 23 -133 27 -169h2c4 37 18 121 28 169l100 481h92l-165 -754h-114zM598 -16v754h88v-754h-88zM819 -16v754h89v-754h-89z" />
    <glyph glyph-name="uni2167" unicode="&#x2167;" 
d="M184 -16l-156 754h83l101 -481c9 -48 21 -133 25 -169h2c5 37 18 121 27 169l96 481h86l-157 -754h-107zM505 -16v754h83v-754h-83zM679 -16v754h84v-754h-84zM853 -16v754h84v-754h-84z" />
    <glyph glyph-name="uni2168" unicode="&#x2168;" 
d="M128 -16v754h89v-754h-89zM833 -16l-127 199c-26 42 -60 95 -82 133c-23 -38 -57 -92 -82 -131l-126 -201h-100l257 393l-238 361h102l111 -175c19 -29 61 -94 81 -128c20 34 62 100 80 128l107 175h98l-233 -361l258 -393h-106z" />
    <glyph glyph-name="uni2169" unicode="&#x2169;" 
d="M724 -16l-138 200c-30 42 -66 98 -90 137c-26 -38 -63 -96 -91 -135l-137 -202h-108l282 393l-261 361h110l123 -176c20 -29 66 -98 87 -132c21 34 68 105 87 132l119 176h104l-255 -361l283 -393h-115z" />
    <glyph glyph-name="Japan1.8061" unicode="&#x1f100;" 
d="M462 -29c-182 0 -252 169 -252 392c0 245 87 387 256 387c164 0 250 -141 250 -394c0 -215 -71 -385 -254 -385zM465 46c102 0 159 109 159 316c0 204 -59 313 -161 313s-161 -110 -161 -313c0 -208 59 -316 163 -316zM821 -16v106h105v-106h-105z" />
    <glyph glyph-name="uni2488" unicode="&#x2488;" 
d="M477 -16v437c0 69 3 166 6 217h-3c-24 -22 -50 -47 -84 -77l-41 -34l-50 60l181 151h82v-754h-91zM821 -16v106h105v-106h-105z" />
    <glyph glyph-name="uni2489" unicode="&#x2489;" 
d="M212 -16v90c256 216 364 344 364 463c0 93 -65 139 -156 139c-54 0 -114 -18 -174 -52l-11 81c59 28 128 45 200 45c143 0 236 -75 236 -207c0 -104 -64 -201 -203 -342c-65 -64 -122 -109 -170 -143v-2c56 1 144 3 199 3h188v-75h-473zM821 -16v106h105v-106h-105z" />
    <glyph glyph-name="uni248A" unicode="&#x248a;" 
d="M680 189c0 -133 -108 -217 -277 -217c-61 0 -124 11 -186 31l6 81c67 -28 122 -40 179 -40c102 0 186 47 186 152c0 96 -84 144 -234 144c-11 0 -25 0 -36 -1v73c10 -1 23 -1 34 -1c141 0 233 45 233 139c0 87 -75 129 -166 129c-55 0 -106 -11 -171 -40l-6 78
c59 23 121 33 183 33c151 0 248 -71 248 -196c0 -103 -85 -165 -194 -175v-3c111 -7 201 -75 201 -187zM821 -16v106h105v-106h-105z" />
    <glyph glyph-name="uni248B" unicode="&#x248b;" 
d="M529 -16v171h-361v77l324 506h123v-507h105v-76h-105v-171h-86zM529 453c0 66 1 147 4 227h-2c-19 -37 -59 -108 -93 -162l-181 -287h272v222zM821 -16v106h105v-106h-105z" />
    <glyph glyph-name="uni248C" unicode="&#x248c;" 
d="M238 79c52 -24 108 -35 157 -35c114 0 196 64 196 172c0 109 -73 166 -193 166c-51 0 -103 -12 -154 -31l6 387h405v-74h-322l-8 -225c32 9 64 13 101 13c150 0 256 -88 256 -229c0 -152 -112 -250 -286 -250c-50 0 -109 8 -161 25zM821 -16v106h105v-106h-105z" />
    <glyph glyph-name="uni248D" unicode="&#x248d;" 
d="M703 225c0 -142 -92 -253 -243 -253c-170 0 -256 129 -256 355c0 258 109 423 317 423c49 0 93 -6 140 -21l-9 -76c-45 19 -85 26 -127 26c-147 0 -231 -125 -235 -320h3c35 66 115 101 190 101c134 0 220 -102 220 -235zM614 216c0 100 -50 175 -153 175
c-86 0 -157 -71 -157 -166c0 -102 64 -185 154 -185c95 0 156 77 156 176zM821 -16v106h105v-106h-105z" />
    <glyph glyph-name="uni248E" unicode="&#x248e;" 
d="M344 -16l292 677h-375v77h467v-78l-285 -676h-99zM821 -16v106h105v-106h-105z" />
    <glyph glyph-name="uni248F" unicode="&#x248f;" 
d="M531 383c124 -43 183 -104 183 -200c0 -132 -114 -211 -263 -211c-152 0 -255 74 -255 205c0 96 62 159 179 204c-112 43 -160 95 -160 180c0 114 96 189 241 189c138 0 233 -70 233 -183c0 -86 -56 -142 -158 -184zM465 412c83 33 129 79 129 149c0 78 -60 122 -140 122
s-148 -44 -148 -119c0 -81 65 -119 159 -152zM441 344c-101 -33 -152 -87 -152 -164c0 -88 67 -137 163 -137c92 0 168 50 168 136c0 78 -62 128 -179 165zM821 -16v106h105v-106h-105z" />
    <glyph glyph-name="uni2490" unicode="&#x2490;" 
d="M709 400c0 -257 -107 -428 -314 -428c-54 0 -100 7 -149 24l9 77c47 -21 90 -29 135 -29c148 0 229 130 233 325h-3c-34 -67 -113 -101 -187 -101c-138 0 -221 97 -221 230c0 142 91 252 242 252c169 0 255 -124 255 -350zM609 501c0 103 -62 181 -152 181
c-96 0 -155 -76 -155 -175c0 -100 50 -170 153 -170c90 0 154 69 154 164zM821 -16v106h105v-106h-105z" />
    <glyph glyph-name="uni2474" unicode="&#x2474;" 
d="M186 -100c-104 122 -164 288 -164 480s60 359 164 480l17 -13c-84 -120 -126 -277 -126 -467s42 -346 126 -467zM797 -87c84 120 126 277 126 467s-42 346 -126 467l17 13c104 -122 164 -288 164 -480s-60 -359 -164 -480zM480 2v437c0 69 3 166 5 217h-2
c-24 -22 -50 -47 -84 -77l-41 -34l-51 60l182 151h82v-754h-91z" />
    <glyph glyph-name="uni2475" unicode="&#x2475;" 
d="M186 -100c-104 122 -164 288 -164 480s60 359 164 480l17 -13c-84 -120 -126 -277 -126 -467s42 -346 126 -467zM797 -87c84 120 126 277 126 467s-42 346 -126 467l17 13c104 -122 164 -288 164 -480s-60 -359 -164 -480zM268 2v90c255 216 364 344 364 463
c0 93 -66 139 -157 139c-54 0 -114 -18 -174 -52l-10 81c59 28 128 45 200 45c142 0 235 -75 235 -207c0 -104 -64 -201 -203 -342c-65 -64 -122 -109 -170 -143v-2c57 1 145 3 199 3h188v-75h-472z" />
    <glyph glyph-name="uni2476" unicode="&#x2476;" 
d="M186 -100c-104 122 -164 288 -164 480s60 359 164 480l17 -13c-84 -120 -126 -277 -126 -467s42 -346 126 -467zM797 -87c84 120 126 277 126 467s-42 346 -126 467l17 13c104 -122 164 -288 164 -480s-60 -359 -164 -480zM740 207c0 -133 -108 -217 -277 -217
c-61 0 -124 11 -186 31l6 81c67 -28 121 -40 179 -40c101 0 186 47 186 152c0 96 -84 144 -235 144c-11 0 -25 0 -36 -1v73c10 -1 24 -1 35 -1c141 0 232 45 232 139c0 87 -74 129 -165 129c-55 0 -106 -11 -171 -40l-6 78c59 23 121 33 183 33c150 0 247 -71 247 -196
c0 -103 -84 -165 -193 -175v-3c111 -7 201 -75 201 -187z" />
    <glyph glyph-name="uni2477" unicode="&#x2477;" 
d="M186 -100c-104 122 -164 288 -164 480s60 359 164 480l17 -13c-84 -120 -126 -277 -126 -467s42 -346 126 -467zM797 -87c84 120 126 277 126 467s-42 346 -126 467l17 13c104 -122 164 -288 164 -480s-60 -359 -164 -480zM580 2v171h-362v77l324 506h123v-507h105v-76
h-105v-171h-85zM580 471c0 66 0 147 3 227h-2c-19 -37 -59 -108 -93 -162l-181 -287h273v222z" />
    <glyph glyph-name="uni2478" unicode="&#x2478;" 
d="M186 -100c-104 122 -164 288 -164 480s60 359 164 480l17 -13c-84 -120 -126 -277 -126 -467s42 -346 126 -467zM797 -87c84 120 126 277 126 467s-42 346 -126 467l17 13c104 -122 164 -288 164 -480s-60 -359 -164 -480zM299 97c52 -24 107 -35 157 -35
c114 0 196 64 196 172c0 109 -74 166 -193 166c-51 0 -104 -12 -154 -31l6 387h405v-74h-323l-7 -225c32 9 63 13 100 13c151 0 257 -88 257 -229c0 -152 -113 -250 -286 -250c-51 0 -109 8 -162 25z" />
    <glyph glyph-name="uni2479" unicode="&#x2479;" 
d="M186 -100c-104 122 -164 288 -164 480s60 359 164 480l17 -13c-84 -120 -126 -277 -126 -467s42 -346 126 -467zM797 -87c84 120 126 277 126 467s-42 346 -126 467l17 13c104 -122 164 -288 164 -480s-60 -359 -164 -480zM747 243c0 -142 -92 -253 -243 -253
c-170 0 -256 129 -256 355c0 258 109 423 317 423c49 0 93 -6 140 -21l-9 -76c-45 19 -85 26 -127 26c-147 0 -231 -125 -235 -320h3c35 66 115 101 190 101c134 0 220 -102 220 -235zM658 234c0 100 -50 175 -153 175c-86 0 -157 -71 -157 -166c0 -102 64 -185 154 -185
c95 0 156 77 156 176z" />
    <glyph glyph-name="uni247A" unicode="&#x247a;" 
d="M186 -100c-104 122 -164 288 -164 480s60 359 164 480l17 -13c-84 -120 -126 -277 -126 -467s42 -346 126 -467zM797 -87c84 120 126 277 126 467s-42 346 -126 467l17 13c104 -122 164 -288 164 -480s-60 -359 -164 -480zM360 2l292 677h-375v77h467v-78l-285 -676h-99z
" />
    <glyph glyph-name="uni247B" unicode="&#x247b;" 
d="M186 -100c-104 122 -164 288 -164 480s60 359 164 480l17 -13c-84 -120 -126 -277 -126 -467s42 -346 126 -467zM797 -87c84 120 126 277 126 467s-42 346 -126 467l17 13c104 -122 164 -288 164 -480s-60 -359 -164 -480zM581 401c124 -43 183 -104 183 -200
c0 -132 -114 -211 -263 -211c-152 0 -255 74 -255 205c0 96 62 159 179 204c-112 43 -160 95 -160 180c0 114 96 189 241 189c138 0 233 -70 233 -183c0 -86 -56 -142 -158 -184zM515 430c83 33 129 79 129 149c0 78 -60 122 -140 122s-148 -44 -148 -119
c0 -81 65 -119 159 -152zM491 362c-101 -33 -152 -87 -152 -164c0 -88 67 -137 163 -137c92 0 168 50 168 136c0 78 -62 128 -179 165z" />
    <glyph glyph-name="uni247C" unicode="&#x247c;" 
d="M186 -100c-104 122 -164 288 -164 480s60 359 164 480l17 -13c-84 -120 -126 -277 -126 -467s42 -346 126 -467zM797 -87c84 120 126 277 126 467s-42 346 -126 467l17 13c104 -122 164 -288 164 -480s-60 -359 -164 -480zM759 418c0 -257 -107 -428 -314 -428
c-54 0 -100 7 -150 24l10 77c46 -21 90 -29 135 -29c147 0 229 130 233 325h-3c-34 -67 -113 -101 -187 -101c-138 0 -221 97 -221 230c0 142 91 252 241 252c170 0 256 -124 256 -350zM659 519c0 103 -62 181 -152 181c-96 0 -155 -76 -155 -175c0 -100 50 -170 152 -170
c91 0 155 69 155 164z" />
    <glyph glyph-name="uni247D" unicode="&#x247d;" 
d="M186 -100c-104 122 -164 288 -164 480s60 359 164 480l17 -13c-84 -120 -126 -277 -126 -467s42 -346 126 -467zM797 -87c84 120 126 277 126 467s-42 346 -126 467l17 13c104 -122 164 -288 164 -480s-60 -359 -164 -480zM644 -8c-120 0 -180 137 -180 384
s55 387 181 387c120 0 176 -136 176 -384c0 -246 -57 -387 -177 -387zM294 1v406c0 80 0 187 2 257h-2c-24 -25 -41 -39 -58 -54l-30 -26l-43 55l133 116h75v-754h-77zM643 68c70 0 100 108 100 311c0 211 -28 311 -100 311c-70 0 -100 -103 -100 -315
c0 -202 30 -307 100 -307z" />
    <glyph glyph-name="uni247E" unicode="&#x247e;" 
d="M186 -100c-104 122 -164 288 -164 480s60 359 164 480l17 -13c-84 -120 -126 -277 -126 -467s42 -346 126 -467zM797 -87c84 120 126 277 126 467s-42 346 -126 467l17 13c104 -122 164 -288 164 -480s-60 -359 -164 -480zM335 1v406c0 80 1 187 3 257h-2
c-24 -25 -41 -39 -59 -54l-30 -26l-42 55l133 116h75v-754h-78zM636 1v406c0 80 1 187 3 257h-2c-25 -25 -41 -39 -59 -54l-30 -26l-43 55l134 116h75v-754h-78z" />
    <glyph glyph-name="uni247F" unicode="&#x247f;" 
d="M186 -100c-104 122 -164 288 -164 480s60 359 164 480l17 -13c-84 -120 -126 -277 -126 -467s42 -346 126 -467zM797 -87c84 120 126 277 126 467s-42 346 -126 467l17 13c104 -122 164 -288 164 -480s-60 -359 -164 -480zM461 1v73c149 175 241 339 241 485
c0 89 -36 133 -107 133c-34 0 -69 -9 -107 -31l-6 67c38 24 82 36 130 36c101 0 169 -56 169 -194c0 -140 -55 -245 -125 -349c-41 -60 -87 -115 -116 -148v-2c27 1 66 3 97 3h149v-73h-325zM296 1v406c0 80 1 187 3 257h-2c-24 -25 -41 -39 -59 -54l-30 -26l-42 55l133 116
h75v-754h-78z" />
    <glyph glyph-name="uni2480" unicode="&#x2480;" 
d="M186 -100c-104 122 -164 288 -164 480s60 359 164 480l17 -13c-84 -120 -126 -277 -126 -467s42 -346 126 -467zM797 -87c84 120 126 277 126 467s-42 346 -126 467l17 13c104 -122 164 -288 164 -480s-60 -359 -164 -480zM475 87c37 -18 71 -23 110 -23
c71 0 136 40 136 149c0 102 -53 142 -143 142c-11 0 -25 0 -36 -1v71c15 -1 28 -2 39 -2c79 0 136 47 136 142c0 92 -53 129 -116 129c-42 0 -70 -7 -110 -28l-5 70c42 19 82 28 131 28c97 0 178 -59 178 -186c0 -112 -61 -163 -122 -182v-1c69 -15 127 -62 127 -182
c0 -144 -88 -219 -207 -219c-41 0 -84 5 -122 19zM297 1v406c0 80 1 187 3 257h-2c-25 -25 -41 -39 -59 -54l-30 -26l-43 55l134 116h75v-754h-78z" />
    <glyph glyph-name="uni2481" unicode="&#x2481;" 
d="M186 -100c-104 122 -164 288 -164 480s60 359 164 480l17 -13c-84 -120 -126 -277 -126 -467s42 -346 126 -467zM797 -87c84 120 126 277 126 467s-42 346 -126 467l17 13c104 -122 164 -288 164 -480s-60 -359 -164 -480zM296 1v406c0 80 0 187 2 257h-2
c-24 -25 -41 -39 -58 -54l-30 -26l-43 55l133 116h75v-754h-77zM694 1v176h-237v77l213 501h98v-506h77v-72h-77v-176h-74zM696 416c0 68 1 156 4 245h-2c-24 -64 -59 -150 -82 -205l-93 -207h173v167z" />
    <glyph glyph-name="uni2482" unicode="&#x2482;" 
d="M186 -100c-104 122 -164 288 -164 480s60 359 164 480l17 -13c-84 -120 -126 -277 -126 -467s42 -346 126 -467zM797 -87c84 120 126 277 126 467s-42 346 -126 467l17 13c104 -122 164 -288 164 -480s-60 -359 -164 -480zM296 1v406c0 80 1 187 3 257h-2
c-24 -25 -41 -39 -59 -54l-30 -26l-42 55l133 116h75v-754h-78zM490 84c30 -13 60 -20 104 -20c90 0 135 69 135 177c0 101 -41 156 -130 156c-37 0 -64 -6 -99 -19l5 377h277v-71h-211l-4 -228c24 7 35 10 66 10c110 0 175 -80 175 -221c0 -162 -87 -250 -211 -250
c-44 0 -78 5 -111 16z" />
    <glyph glyph-name="uni2483" unicode="&#x2483;" 
d="M186 -100c-104 122 -164 288 -164 480s60 359 164 480l17 -13c-84 -120 -126 -277 -126 -467s42 -346 126 -467zM797 -87c84 120 126 277 126 467s-42 346 -126 467l17 13c104 -122 164 -288 164 -480s-60 -359 -164 -480zM545 386c23 48 63 81 126 81
c94 0 150 -82 150 -222c0 -153 -67 -251 -174 -251c-134 0 -182 136 -182 334c0 238 61 436 233 436c32 0 68 -3 99 -14l-7 -70c-28 11 -58 16 -86 16c-120 0 -157 -139 -160 -310h1zM296 1v406c0 80 1 187 3 257h-2c-24 -25 -41 -39 -59 -54l-30 -26l-42 55l133 116h75
v-754h-78zM647 59c67 0 97 81 97 176c0 104 -29 166 -92 166c-57 0 -104 -62 -104 -157c0 -98 29 -185 99 -185z" />
    <glyph glyph-name="uni2484" unicode="&#x2484;" 
d="M186 -100c-104 122 -164 288 -164 480s60 359 164 480l17 -13c-84 -120 -126 -277 -126 -467s42 -346 126 -467zM797 -87c84 120 126 277 126 467s-42 346 -126 467l17 13c104 -122 164 -288 164 -480s-60 -359 -164 -480zM303 1v406c0 80 1 187 3 257h-2
c-25 -25 -41 -39 -59 -54l-30 -26l-43 55l134 116h75v-754h-78zM533 1l193 680h-241v74h319v-76l-190 -678h-81z" />
    <glyph glyph-name="uni2485" unicode="&#x2485;" 
d="M186 -100c-104 122 -164 288 -164 480s60 359 164 480l17 -13c-84 -120 -126 -277 -126 -467s42 -346 126 -467zM797 -87c84 120 126 277 126 467s-42 346 -126 467l17 13c104 -122 164 -288 164 -480s-60 -359 -164 -480zM820 191c0 -131 -75 -197 -182 -197
c-108 0 -181 66 -181 195c0 101 55 158 127 199c-67 44 -111 95 -111 190c0 118 71 186 169 186c96 0 163 -62 163 -177c0 -96 -46 -153 -113 -192c81 -51 128 -107 128 -204zM295 1v406c0 80 1 187 3 257h-2c-25 -25 -41 -39 -59 -54l-30 -26l-43 55l133 116h76v-754h-78z
M732 580c0 73 -32 120 -91 120c-61 0 -95 -48 -95 -125c0 -81 36 -119 95 -152c58 32 91 79 91 157zM743 189c0 68 -26 119 -107 166c-62 -36 -100 -90 -100 -164c0 -88 39 -131 102 -131c59 0 105 43 105 129z" />
    <glyph glyph-name="uni2486" unicode="&#x2486;" 
d="M186 -100c-104 122 -164 288 -164 480s60 359 164 480l17 -13c-84 -120 -126 -277 -126 -467s42 -346 126 -467zM797 -87c84 120 126 277 126 467s-42 346 -126 467l17 13c104 -122 164 -288 164 -480s-60 -359 -164 -480zM501 78c28 -12 58 -16 86 -16
c120 0 158 139 160 309h-1c-22 -47 -63 -81 -126 -81c-93 0 -150 83 -150 223c0 153 67 251 174 251c134 0 182 -136 182 -334c0 -239 -61 -436 -233 -436c-32 0 -68 3 -99 14zM298 1v406c0 80 1 187 3 257h-2c-25 -25 -41 -39 -59 -54l-30 -26l-43 55l133 116h76v-754h-78z
M639 356c57 0 104 63 104 157c0 99 -29 185 -99 185c-66 0 -97 -81 -97 -176c0 -103 29 -166 92 -166z" />
    <glyph glyph-name="uni2487" unicode="&#x2487;" 
d="M186 -100c-104 122 -164 288 -164 480s60 359 164 480l17 -13c-84 -120 -126 -277 -126 -467s42 -346 126 -467zM797 -87c84 120 126 277 126 467s-42 346 -126 467l17 13c104 -122 164 -288 164 -480s-60 -359 -164 -480zM175 1v73c138 175 224 339 224 485
c0 89 -34 133 -100 133c-31 0 -63 -10 -99 -33l-6 70c37 24 77 35 122 35c91 0 162 -49 162 -194c0 -140 -50 -246 -116 -349c-38 -60 -81 -115 -108 -147v-3c27 1 63 3 93 3h135v-73h-307zM692 -8c-115 0 -170 136 -170 384c0 247 50 387 171 387c114 0 166 -136 166 -384
c0 -247 -54 -387 -167 -387zM690 68c64 0 91 108 91 311c0 210 -25 311 -90 311s-90 -104 -90 -315c0 -202 25 -307 89 -307z" />
    <glyph glyph-name="uni3251" unicode="&#x3251;" 
d="M500 -90c-260 0 -470 210 -470 470s210 470 470 470c259 0 470 -210 470 -470s-211 -470 -470 -470zM935 380c0 241 -194 436 -435 436s-436 -195 -436 -436s195 -436 436 -436s435 195 435 436zM227 89v62c124 132 208 248 208 353c0 69 -34 102 -90 102
c-31 0 -61 -8 -95 -27l-6 70c35 19 78 29 116 29c84 0 150 -45 150 -159c0 -97 -43 -175 -103 -255c-34 -45 -70 -82 -97 -105v-3c25 1 61 3 89 3h115v-70h-287zM688 88v307c0 61 2 146 3 199h-1c-27 -25 -48 -43 -65 -55l-30 -25l-36 51l136 105h67v-582h-74z" />
    <glyph glyph-name="uni2170" unicode="&#x2170;" 
d="M451 645v101h98v-101h-98zM456 -16v550h88v-550h-88z" />
    <glyph glyph-name="uni2171" unicode="&#x2171;" 
d="M304 645v101h99v-101h-99zM596 645v101h99v-101h-99zM310 -16v550h87v-550h-87zM602 -16v550h87v-550h-87z" />
    <glyph glyph-name="uni2172" unicode="&#x2172;" 
d="M173 645v101h99v-101h-99zM451 645v101h98v-101h-98zM728 645v101h98v-101h-98zM179 -16v550h87v-550h-87zM456 -16v550h88v-550h-88zM733 -16v550h88v-550h-88z" />
    <glyph glyph-name="uni2173" unicode="&#x2173;" 
d="M178 645v101h98v-101h-98zM183 -16v550h88v-550h-88zM581 -16l-200 550h94l120 -349c12 -35 29 -94 39 -131h2c11 37 31 99 41 131l121 349h87l-203 -550h-101z" />
    <glyph glyph-name="uni2174" unicode="&#x2174;" 
d="M447 -16l-199 550h93l120 -349c13 -35 30 -94 40 -131h2c10 37 30 99 41 131l120 349h87l-202 -550h-102z" />
    <glyph glyph-name="uni2175" unicode="&#x2175;" 
d="M724 645v101h98v-101h-98zM315 -16l-200 550h94l120 -349c12 -35 29 -94 39 -131h2c11 37 31 99 41 131l121 349h87l-203 -550h-101zM729 -16v550h88v-550h-88z" />
    <glyph glyph-name="uni2176" unicode="&#x2176;" 
d="M577 651v94h93v-94h-93zM798 651v94h93v-94h-93zM231 -16l-165 550h88l96 -331c10 -35 23 -88 31 -123h2c6 35 22 92 30 123l94 331h87l-167 -550h-96zM581 -16v550h85v-550h-85zM802 -16v550h85v-550h-85z" />
    <glyph glyph-name="uni2177" unicode="&#x2177;" 
d="M489 651v94h90v-94h-90zM665 651v94h90v-94h-90zM841 651v94h90v-94h-90zM187 -16l-153 550h84l88 -332c10 -35 22 -86 29 -121h2c6 35 20 90 28 121l87 332h82l-155 -550h-92zM493 -16v550h82v-550h-82zM669 -16v550h82v-550h-82zM845 -16v550h82v-550h-82z" />
    <glyph glyph-name="uni2178" unicode="&#x2178;" 
d="M166 645v101h99v-101h-99zM172 -16v550h87v-550h-87zM771 -16l-80 129c-14 22 -49 80 -65 109h-1c-15 -27 -50 -82 -66 -109l-80 -129h-102l198 288l-183 262h106l73 -118c13 -21 40 -65 59 -100h1c17 32 47 81 59 100l72 118h96l-176 -262l193 -288h-104z" />
    <glyph glyph-name="uni2179" unicode="&#x2179;" 
d="M645 -16l-80 129c-14 22 -49 80 -65 109h-1c-15 -27 -50 -82 -66 -109l-80 -129h-102l197 288l-182 262h105l74 -118c13 -21 40 -65 59 -100h1c17 32 47 81 58 100l73 118h96l-177 -262l194 -288h-104z" />
    <glyph glyph-name="uni3252" unicode="&#x3252;" 
d="M500 -90c-260 0 -470 210 -470 470s210 470 470 470c259 0 470 -210 470 -470s-211 -470 -470 -470zM935 380c0 241 -194 436 -435 436s-436 -195 -436 -436s195 -436 436 -436s435 195 435 436zM200 89v62c124 132 208 248 208 353c0 69 -33 102 -90 102
c-30 0 -61 -8 -94 -27l-6 70c34 19 77 29 115 29c83 0 150 -45 150 -159c0 -97 -43 -175 -103 -255c-34 -45 -71 -82 -96 -105v-3c25 1 60 3 89 3h112v-70h-285zM521 89v62c123 132 208 248 208 353c0 69 -34 102 -91 102c-30 0 -60 -8 -94 -27l-6 70c35 19 77 29 115 29
c84 0 150 -45 150 -159c0 -97 -42 -175 -102 -255c-34 -45 -71 -82 -96 -105v-3c24 1 60 3 88 3h112v-70h-284z" />
    <glyph glyph-name="uni3253" unicode="&#x3253;" 
d="M500 -90c-260 0 -470 210 -470 470s210 470 470 470c259 0 470 -210 470 -470s-211 -470 -470 -470zM935 380c0 241 -194 436 -435 436s-436 -195 -436 -436s195 -436 436 -436s435 195 435 436zM201 89v62c124 132 208 248 208 353c0 69 -34 102 -91 102
c-30 0 -60 -8 -94 -27l-6 70c35 19 77 29 115 29c84 0 150 -45 150 -159c0 -97 -42 -175 -102 -255c-34 -45 -72 -82 -97 -105v-3c25 1 61 3 89 3h115v-70h-287zM537 165c34 -14 64 -19 95 -19c62 0 116 29 116 108c0 75 -46 103 -121 103c-9 0 -22 0 -31 -1v63
c12 -1 24 -2 34 -2c66 0 113 33 113 103c0 67 -43 93 -96 93c-37 0 -62 -8 -95 -22l-6 63c38 16 73 23 114 23c87 0 156 -45 156 -144c0 -85 -48 -125 -102 -140v-1c61 -14 108 -50 108 -140c0 -113 -77 -170 -182 -170c-35 0 -73 4 -106 16z" />
    <glyph glyph-name="uni3254" unicode="&#x3254;" 
d="M500 -90c-260 0 -470 210 -470 470s210 470 470 470c259 0 470 -210 470 -470s-211 -470 -470 -470zM935 380c0 241 -194 436 -435 436s-436 -195 -436 -436s195 -436 436 -436s435 195 435 436zM200 89v62c124 132 208 248 208 353c0 69 -33 102 -90 102
c-30 0 -61 -8 -94 -27l-6 70c35 19 77 29 115 29c84 0 150 -45 150 -159c0 -97 -43 -175 -102 -255c-34 -45 -72 -82 -97 -105v-3c25 1 61 3 89 3h114v-70h-287zM711 88v133h-204v67l182 382h92v-387h65v-62h-65v-133h-70zM712 399c0 53 1 122 4 192h-1
c-23 -50 -55 -122 -74 -164l-70 -144h141v116z" />
    <glyph glyph-name="uni3255" unicode="&#x3255;" 
d="M500 -90c-260 0 -470 210 -470 470s210 470 470 470c259 0 470 -210 470 -470s-211 -470 -470 -470zM935 380c0 241 -194 436 -435 436s-436 -195 -436 -436s195 -436 436 -436s435 195 435 436zM201 89v62c124 132 208 248 208 353c0 69 -34 102 -91 102
c-30 0 -60 -8 -94 -27l-6 70c35 19 77 29 115 29c84 0 150 -45 150 -159c0 -97 -42 -175 -102 -255c-34 -45 -72 -82 -97 -105v-3c25 1 61 3 89 3h115v-70h-287zM543 161c28 -9 54 -14 89 -14c75 0 113 48 113 126c0 74 -35 114 -109 114c-31 0 -54 -4 -85 -14l2 296h244
v-65h-184l-1 -161c20 4 35 6 58 6c97 0 148 -64 148 -173c0 -126 -72 -193 -180 -193c-38 0 -68 3 -99 11z" />
    <glyph glyph-name="uni3256" unicode="&#x3256;" 
d="M500 -90c-260 0 -470 210 -470 470s210 470 470 470c259 0 470 -210 470 -470s-211 -470 -470 -470zM935 380c0 241 -194 436 -435 436s-436 -195 -436 -436s195 -436 436 -436s435 195 435 436zM198 89v62c125 132 208 248 208 353c0 69 -33 102 -90 102
c-30 0 -61 -8 -94 -27l-7 70c35 19 78 29 117 29c83 0 149 -45 149 -159c0 -97 -43 -175 -103 -255c-34 -45 -71 -82 -97 -105v-3c25 1 61 3 90 3h114v-70h-287zM596 384c19 38 55 66 108 66c81 0 129 -64 129 -173c0 -118 -61 -195 -153 -195c-115 0 -160 104 -160 259
c0 187 54 335 204 335c28 0 59 -3 86 -12l-7 -62c-25 10 -48 13 -74 13c-99 0 -132 -105 -135 -231h2zM679 142c55 0 81 57 81 127c0 77 -27 122 -78 122c-46 0 -83 -46 -83 -115c0 -73 25 -134 80 -134z" />
    <glyph glyph-name="uni3257" unicode="&#x3257;" 
d="M500 -90c-260 0 -470 210 -470 470s210 470 470 470c259 0 470 -210 470 -470s-211 -470 -470 -470zM935 380c0 241 -194 436 -435 436s-436 -195 -436 -436s195 -436 436 -436s435 195 435 436zM204 89v62c124 132 208 248 208 353c0 69 -34 102 -91 102
c-30 0 -60 -8 -94 -27l-6 70c35 19 77 29 116 29c83 0 150 -45 150 -159c0 -97 -44 -175 -103 -255c-34 -45 -71 -82 -97 -105v-3c25 1 61 3 90 3h114v-70h-287zM574 88l164 515h-204v67h276v-68l-161 -514h-75z" />
    <glyph glyph-name="uni3258" unicode="&#x3258;" 
d="M500 -90c-260 0 -470 210 -470 470s210 470 470 470c259 0 470 -210 470 -470s-211 -470 -470 -470zM935 380c0 241 -194 436 -435 436s-436 -195 -436 -436s195 -436 436 -436s435 195 435 436zM199 89v62c125 132 208 248 208 353c0 69 -33 102 -90 102
c-30 0 -61 -8 -94 -27l-6 70c35 19 77 29 116 29c83 0 149 -45 149 -159c0 -97 -43 -175 -103 -255c-33 -45 -70 -82 -96 -105v-3c25 1 60 3 89 3h114v-70h-287zM838 237c0 -102 -67 -155 -159 -155c-93 0 -158 52 -158 152c0 78 44 120 106 153c-58 33 -92 72 -92 145
c0 92 64 144 148 144c81 0 141 -48 141 -137c0 -73 -36 -117 -92 -147c68 -39 106 -81 106 -155zM758 531c0 54 -28 87 -76 87c-50 0 -78 -35 -78 -90c0 -60 29 -86 77 -111c49 24 77 58 77 114zM765 236c0 50 -22 86 -88 121c-50 -27 -82 -65 -82 -119c0 -65 33 -97 84 -97
c49 0 86 32 86 95z" />
    <glyph glyph-name="uni3259" unicode="&#x3259;" 
d="M500 -90c-260 0 -470 210 -470 470s210 470 470 470c259 0 470 -210 470 -470s-211 -470 -470 -470zM935 380c0 241 -194 436 -435 436s-436 -195 -436 -436s195 -436 436 -436s435 195 435 436zM201 89v62c123 132 207 248 207 353c0 69 -33 102 -90 102
c-30 0 -60 -8 -94 -27l-6 70c35 19 77 29 115 29c84 0 150 -45 150 -159c0 -97 -42 -175 -102 -255c-34 -45 -72 -82 -97 -105v-3c25 1 61 3 89 3h114v-70h-286zM564 157c25 -10 48 -13 74 -13c99 0 132 104 135 230h-2c-19 -39 -55 -66 -108 -66c-82 0 -129 64 -129 173
c0 119 61 195 153 195c115 0 160 -104 160 -259c0 -187 -53 -335 -203 -335c-28 0 -61 4 -87 13zM685 367c46 0 83 47 83 116c0 73 -24 133 -81 133c-54 0 -79 -58 -79 -127c0 -76 26 -122 77 -122z" />
    <glyph glyph-name="uni325A" unicode="&#x325a;" 
d="M500 -90c-260 0 -470 210 -470 470s210 470 470 470c259 0 470 -210 470 -470s-211 -470 -470 -470zM935 380c0 241 -194 436 -435 436s-436 -195 -436 -436s195 -436 436 -436s435 195 435 436zM205 165c33 -14 63 -19 95 -19c61 0 115 28 115 108
c0 74 -45 102 -121 102c-8 0 -22 0 -31 -1v63c12 -1 25 -1 35 -1c66 0 112 33 112 103c0 66 -42 93 -96 93c-36 0 -62 -8 -95 -22l-5 63c37 16 72 23 114 23c86 0 156 -45 156 -145c0 -85 -48 -124 -103 -140v-1c61 -13 108 -49 108 -139c0 -114 -76 -170 -181 -170
c-36 0 -73 4 -107 16zM693 81c-107 0 -161 104 -161 296c0 194 51 299 163 299c105 0 157 -105 157 -297s-54 -298 -159 -298zM692 147c56 0 86 79 86 232c0 159 -27 234 -86 234c-57 0 -87 -75 -87 -236c0 -154 30 -230 87 -230z" />
    <glyph glyph-name="uni325B" unicode="&#x325b;" 
d="M500 -90c-260 0 -470 210 -470 470s210 470 470 470c259 0 470 -210 470 -470s-211 -470 -470 -470zM935 380c0 241 -194 436 -435 436s-436 -195 -436 -436s195 -436 436 -436s435 195 435 436zM228 165c34 -14 64 -19 95 -19c62 0 116 29 116 108
c0 75 -46 103 -121 103c-9 0 -22 0 -31 -1v63c12 -1 24 -2 34 -2c67 0 113 33 113 103c0 67 -43 93 -96 93c-37 0 -62 -8 -95 -22l-6 63c38 16 73 23 115 23c86 0 155 -45 155 -144c0 -85 -47 -125 -102 -140v-1c61 -14 108 -50 108 -140c0 -113 -77 -170 -182 -170
c-35 0 -73 4 -106 16zM685 88v307c0 61 1 146 2 198h-1c-26 -25 -49 -43 -64 -55l-30 -24l-36 51l135 105h67v-582h-73z" />
    <glyph glyph-name="uni249C" unicode="&#x249c;" 
d="M186 -100c-104 122 -164 288 -164 480s60 359 164 480l17 -13c-84 -120 -126 -277 -126 -467s42 -346 126 -467zM797 -87c84 120 126 277 126 467s-42 346 -126 467l17 13c104 -122 164 -288 164 -480s-60 -359 -164 -480zM630 139c-2 11 -3 31 -3 47c0 12 1 28 2 41h-2
c-31 -58 -88 -95 -168 -95c-102 0 -169 57 -169 147c0 103 95 161 261 161c19 0 47 -1 70 -3v9c0 84 -38 134 -128 134c-50 0 -103 -17 -144 -47l-6 70c46 28 106 41 162 41c138 0 191 -79 191 -194c0 -63 -3 -141 -3 -166c0 -54 3 -110 6 -145h-69zM622 381
c-11 1 -31 2 -55 2c-128 0 -193 -33 -193 -104c0 -54 40 -85 101 -85c58 0 109 29 131 78c12 25 16 62 16 109z" />
    <glyph glyph-name="uni249D" unicode="&#x249d;" 
d="M186 -100c-104 122 -164 288 -164 480s60 359 164 480l17 -13c-84 -120 -126 -277 -126 -467s42 -346 126 -467zM797 -87c84 120 126 277 126 467s-42 346 -126 467l17 13c104 -122 164 -288 164 -480s-60 -359 -164 -480zM299 50c4 42 5 97 5 150v585h76v-197
c0 -49 -1 -105 -3 -133h2c33 60 94 102 172 102c130 0 211 -111 211 -253c0 -151 -83 -265 -217 -265c-82 0 -138 45 -169 105h-2c0 -33 -2 -72 -5 -94h-70zM532 105c89 0 148 80 148 193c0 110 -52 192 -147 192c-83 0 -152 -82 -152 -194c0 -109 65 -191 151 -191z" />
    <glyph glyph-name="uni249E" unicode="&#x249e;" 
d="M186 -100c-104 122 -164 288 -164 480s60 359 164 480l17 -13c-84 -120 -126 -277 -126 -467s42 -346 126 -467zM797 -87c84 120 126 277 126 467s-42 346 -126 467l17 13c104 -122 164 -288 164 -480s-60 -359 -164 -480zM671 158c-34 -15 -77 -22 -120 -22
c-151 0 -249 102 -249 253c0 147 99 254 252 254c40 0 75 -6 109 -19l-6 -70c-30 14 -61 21 -97 21c-105 0 -175 -76 -175 -183c0 -111 68 -188 174 -188c37 0 68 6 105 25z" />
    <glyph glyph-name="uni249F" unicode="&#x249f;" 
d="M186 -100c-104 122 -164 288 -164 480s60 359 164 480l17 -13c-84 -120 -126 -277 -126 -467s42 -346 126 -467zM797 -87c84 120 126 277 126 467s-42 346 -126 467l17 13c104 -122 164 -288 164 -480s-60 -359 -164 -480zM640 49c-3 28 -4 62 -4 95h-2
c-34 -63 -89 -107 -170 -107c-134 0 -215 105 -215 255c0 154 86 263 216 263c79 0 136 -40 165 -96h2c-2 33 -3 79 -3 128v197h77v-585c0 -53 2 -108 6 -150h-72zM479 103c85 0 152 82 152 191c0 113 -63 195 -151 195c-86 0 -148 -80 -148 -196c0 -107 57 -190 147 -190z
" />
    <glyph glyph-name="uni24A0" unicode="&#x24a0;" 
d="M186 -100c-104 122 -164 288 -164 480s60 359 164 480l17 -13c-84 -120 -126 -277 -126 -467s42 -346 126 -467zM797 -87c84 120 126 277 126 467s-42 346 -126 467l17 13c104 -122 164 -288 164 -480s-60 -359 -164 -480zM681 159c-43 -20 -93 -30 -149 -30
c-163 0 -254 101 -254 262c0 154 93 255 231 255c129 0 207 -81 207 -241c0 -9 -1 -25 -2 -35h-357c3 -110 73 -175 180 -175c54 0 98 13 141 35zM639 431c0 103 -51 155 -132 155c-78 0 -140 -57 -148 -155h280z" />
    <glyph glyph-name="uni24A1" unicode="&#x24a1;" 
d="M186 -100c-104 122 -164 288 -164 480s60 359 164 480l17 -13c-84 -120 -126 -277 -126 -467s42 -346 126 -467zM797 -87c84 120 126 277 126 467s-42 346 -126 467l17 13c104 -122 164 -288 164 -480s-60 -359 -164 -480zM446 19v429h-114v63h114v47
c0 118 37 199 153 199c23 0 42 -2 65 -8l-7 -64c-15 4 -32 7 -46 7c-66 0 -87 -43 -87 -133v-48h128v-63h-128v-429h-78z" />
    <glyph glyph-name="uni24A2" unicode="&#x24a2;" 
d="M186 -100c-104 122 -164 288 -164 480s60 359 164 480l17 -13c-84 -120 -126 -277 -126 -467s42 -346 126 -467zM797 -87c84 120 126 277 126 467s-42 346 -126 467l17 13c104 -122 164 -288 164 -480s-60 -359 -164 -480zM652 288c-28 -53 -83 -99 -165 -99
c-132 0 -216 100 -216 245c0 155 87 261 222 261c78 0 134 -40 162 -96h3c-3 31 -3 60 -3 85h73v-472c0 -128 -64 -239 -239 -239c-65 0 -123 10 -182 33l9 77c57 -30 113 -43 170 -43c117 0 166 70 166 181c0 18 0 48 2 67h-2zM500 253c85 0 152 76 152 186
s-64 190 -151 190c-84 0 -146 -77 -146 -192c0 -107 54 -184 145 -184z" />
    <glyph glyph-name="uni24A3" unicode="&#x24a3;" 
d="M186 -100c-104 122 -164 288 -164 480s60 359 164 480l17 -13c-84 -120 -126 -277 -126 -467s42 -346 126 -467zM797 -87c84 120 126 277 126 467s-42 346 -126 467l17 13c104 -122 164 -288 164 -480s-60 -359 -164 -480zM649 49v253c0 103 -16 186 -120 186
c-52 0 -97 -28 -124 -71c-18 -31 -24 -65 -24 -126v-242h-79v734h79v-190c0 -48 -2 -111 -3 -137h1c33 58 93 98 168 98c135 0 179 -90 179 -220v-285h-77z" />
    <glyph glyph-name="uni24A4" unicode="&#x24a4;" 
d="M186 -100c-104 122 -164 288 -164 480s60 359 164 480l17 -13c-84 -120 -126 -277 -126 -467s42 -346 126 -467zM797 -87c84 120 126 277 126 467s-42 346 -126 467l17 13c104 -122 164 -288 164 -480s-60 -359 -164 -480zM456 635v92h88v-92h-88zM460 41v495h80v-495
h-80z" />
    <glyph glyph-name="uni24A5" unicode="&#x24a5;" 
d="M186 -100c-104 122 -164 288 -164 480s60 359 164 480l17 -13c-84 -120 -126 -277 -126 -467s42 -346 126 -467zM797 -87c84 120 126 277 126 467s-42 346 -126 467l17 13c104 -122 164 -288 164 -480s-60 -359 -164 -480zM477 734v91h90v-91h-90zM378 2
c13 -2 19 -2 28 -2c58 0 77 38 77 120v514h78v-524c0 -111 -40 -177 -142 -177c-13 0 -28 1 -41 5v64z" />
    <glyph glyph-name="uni24A6" unicode="&#x24a6;" 
d="M186 -100c-104 122 -164 288 -164 480s60 359 164 480l17 -13c-84 -120 -126 -277 -126 -467s42 -346 126 -467zM797 -87c84 120 126 277 126 467s-42 346 -126 467l17 13c104 -122 164 -288 164 -480s-60 -359 -164 -480zM638 40l-129 138c-41 42 -85 91 -108 121h-2
v-259h-80v734h80v-448h2c23 26 66 69 98 101l116 107h104l-243 -216l268 -278h-106z" />
    <glyph glyph-name="uni24A7" unicode="&#x24a7;" 
d="M186 -100c-104 122 -164 288 -164 480s60 359 164 480l17 -13c-84 -120 -126 -277 -126 -467s42 -346 126 -467zM797 -87c84 120 126 277 126 467s-42 346 -126 467l17 13c104 -122 164 -288 164 -480s-60 -359 -164 -480zM468 27v734h80v-734h-80z" />
    <glyph glyph-name="uni24A8" unicode="&#x24a8;" 
d="M186 -100c-104 122 -164 288 -164 480s60 359 164 480l17 -13c-84 -120 -126 -277 -126 -467s42 -346 126 -467zM797 -87c84 120 126 277 126 467s-42 346 -126 467l17 13c104 -122 164 -288 164 -480s-60 -359 -164 -480zM718 139v316c0 88 -19 125 -76 125
c-34 0 -62 -25 -78 -65c-10 -24 -16 -59 -16 -101v-275h-78v318c0 94 -25 123 -73 123c-36 0 -64 -25 -81 -65c-12 -26 -17 -61 -17 -107v-269h-77v347c0 53 0 106 -4 148h74c2 -22 2 -48 2 -73h2c26 51 60 84 123 84c58 0 96 -31 110 -95h1c27 63 72 95 137 95
c88 0 129 -57 129 -183v-323h-78z" />
    <glyph glyph-name="uni24A9" unicode="&#x24a9;" 
d="M186 -100c-104 122 -164 288 -164 480s60 359 164 480l17 -13c-84 -120 -126 -277 -126 -467s42 -346 126 -467zM797 -87c84 120 126 277 126 467s-42 346 -126 467l17 13c104 -122 164 -288 164 -480s-60 -359 -164 -480zM641 139v253c0 103 -16 187 -119 187
c-51 0 -98 -28 -125 -72c-18 -31 -25 -65 -25 -125v-243h-78v347c0 53 -1 106 -5 148h78c1 -24 3 -61 3 -87h2c35 60 94 98 168 98c134 0 179 -91 179 -220v-286h-78z" />
    <glyph glyph-name="uni24AA" unicode="&#x24aa;" 
d="M186 -100c-104 122 -164 288 -164 480s60 359 164 480l17 -13c-84 -120 -126 -277 -126 -467s42 -346 126 -467zM797 -87c84 120 126 277 126 467s-42 346 -126 467l17 13c104 -122 164 -288 164 -480s-60 -359 -164 -480zM505 130c-142 0 -246 105 -246 255
c0 155 101 262 249 262c142 0 244 -108 244 -262c0 -151 -101 -255 -247 -255zM507 195c96 0 163 75 163 190c0 117 -68 196 -165 196s-163 -79 -163 -196c0 -116 66 -190 165 -190z" />
    <glyph glyph-name="uni24AB" unicode="&#x24ab;" 
d="M186 -100c-104 122 -164 288 -164 480s60 359 164 480l17 -13c-84 -120 -126 -277 -126 -467s42 -346 126 -467zM797 -87c84 120 126 277 126 467s-42 346 -126 467l17 13c104 -122 164 -288 164 -480s-60 -359 -164 -480zM307 -15v551c0 51 -2 105 -5 148h76
c1 -25 3 -65 3 -89h2c35 62 92 99 172 99c129 0 210 -103 210 -250c0 -157 -83 -267 -213 -267c-81 0 -140 47 -168 105h-2c1 -19 3 -94 3 -126v-171h-78zM536 243c90 0 148 82 148 193c0 113 -56 193 -147 193c-84 0 -153 -82 -153 -194c0 -108 67 -192 152 -192z" />
    <glyph glyph-name="uni24AC" unicode="&#x24ac;" 
d="M186 -100c-104 122 -164 288 -164 480s60 359 164 480l17 -13c-84 -120 -126 -277 -126 -467s42 -346 126 -467zM797 -87c84 120 126 277 126 467s-42 346 -126 467l17 13c104 -122 164 -288 164 -480s-60 -359 -164 -480zM631 -17v169c0 34 2 106 5 130h-3
c-38 -63 -93 -106 -169 -106c-132 0 -215 111 -215 263c0 153 82 254 215 254c83 0 137 -38 170 -100h1c0 22 3 66 6 89h72c-2 -22 -3 -56 -3 -83v-616h-79zM478 242c85 0 152 82 152 191c0 114 -66 194 -154 194c-86 0 -145 -76 -145 -188c0 -111 57 -197 147 -197z" />
    <glyph glyph-name="uni24AD" unicode="&#x24ad;" 
d="M186 -100c-104 122 -164 288 -164 480s60 359 164 480l17 -13c-84 -120 -126 -277 -126 -467s42 -346 126 -467zM797 -87c84 120 126 277 126 467s-42 346 -126 467l17 13c104 -122 164 -288 164 -480s-60 -359 -164 -480zM394 139v347c0 53 -1 106 -5 148h78
c2 -28 3 -64 3 -91h2c26 57 72 102 139 102c17 0 33 -2 44 -6v-74c-12 5 -27 7 -45 7c-85 0 -138 -75 -138 -199v-234h-78z" />
    <glyph glyph-name="uni24AE" unicode="&#x24ae;" 
d="M186 -100c-104 122 -164 288 -164 480s60 359 164 480l17 -13c-84 -120 -126 -277 -126 -467s42 -346 126 -467zM797 -87c84 120 126 277 126 467s-42 346 -126 467l17 13c104 -122 164 -288 164 -480s-60 -359 -164 -480zM360 226c39 -22 81 -31 123 -31
c56 0 100 27 100 76c0 43 -28 65 -108 100c-79 36 -116 69 -116 136c0 87 72 140 168 140c42 0 82 -8 113 -21l-7 -65c-36 17 -69 24 -106 24c-49 0 -89 -25 -89 -72c0 -43 29 -62 95 -89c91 -39 128 -79 128 -147c0 -97 -73 -147 -174 -147c-49 0 -91 8 -134 25z" />
    <glyph glyph-name="uni24AF" unicode="&#x24af;" 
d="M186 -100c-104 122 -164 288 -164 480s60 359 164 480l17 -13c-84 -120 -126 -277 -126 -467s42 -346 126 -467zM797 -87c84 120 126 277 126 467s-42 346 -126 467l17 13c104 -122 164 -288 164 -480s-60 -359 -164 -480zM656 99c-22 -8 -48 -12 -74 -12
c-116 0 -144 67 -144 169v266h-109v61h109v116l78 26v-142h130v-61h-130v-246c0 -78 13 -125 84 -125c19 0 35 3 53 10z" />
    <glyph glyph-name="uni24B0" unicode="&#x24b0;" 
d="M186 -100c-104 122 -164 288 -164 480s60 359 164 480l17 -13c-84 -120 -126 -277 -126 -467s42 -346 126 -467zM797 -87c84 120 126 277 126 467s-42 346 -126 467l17 13c104 -122 164 -288 164 -480s-60 -359 -164 -480zM638 139c-3 22 -4 54 -4 85h-2
c-26 -48 -79 -97 -172 -97c-112 0 -175 79 -175 200v307h78v-254c0 -108 17 -187 118 -187c50 0 90 23 116 62c22 34 33 71 33 121v258h78v-347c0 -52 0 -107 5 -148h-75z" />
    <glyph glyph-name="uni24B1" unicode="&#x24b1;" 
d="M186 -100c-104 122 -164 288 -164 480s60 359 164 480l17 -13c-84 -120 -126 -277 -126 -467s42 -346 126 -467zM797 -87c84 120 126 277 126 467s-42 346 -126 467l17 13c104 -122 164 -288 164 -480s-60 -359 -164 -480zM456 140l-179 494h84l108 -313
c12 -31 27 -83 36 -118h2c9 35 27 89 36 118l108 313h79l-182 -494h-92z" />
    <glyph glyph-name="uni24B2" unicode="&#x24b2;" 
d="M186 -100c-104 122 -164 288 -164 480s60 359 164 480l17 -13c-84 -120 -126 -277 -126 -467s42 -346 126 -467zM797 -87c84 120 126 277 126 467s-42 346 -126 467l17 13c104 -122 164 -288 164 -480s-60 -359 -164 -480zM603 125l-78 324c-6 22 -17 75 -21 103h-2
c-4 -28 -16 -79 -22 -103l-79 -324h-94l-122 495h80l71 -309c7 -31 13 -79 20 -112h1c7 34 16 81 24 111l74 310h95l74 -310l25 -112h1c5 34 15 83 22 112l72 310h76l-126 -495h-91z" />
    <glyph glyph-name="uni24B3" unicode="&#x24b3;" 
d="M186 -100c-104 122 -164 288 -164 480s60 359 164 480l17 -13c-84 -120 -126 -277 -126 -467s42 -346 126 -467zM797 -87c84 120 126 277 126 467s-42 346 -126 467l17 13c104 -122 164 -288 164 -480s-60 -359 -164 -480zM634 138l-73 116c-12 19 -44 71 -58 98h-1
c-13 -25 -44 -74 -59 -98l-72 -116h-92l178 259l-165 235h96l66 -106c12 -20 37 -60 53 -90h1c15 28 42 74 53 90l64 106h88l-160 -235l175 -259h-94z" />
    <glyph glyph-name="uni24B4" unicode="&#x24b4;" 
d="M186 -100c-104 122 -164 288 -164 480s60 359 164 480l17 -13c-84 -120 -126 -277 -126 -467s42 -346 126 -467zM797 -87c84 120 126 277 126 467s-42 346 -126 467l17 13c104 -122 164 -288 164 -480s-60 -359 -164 -480zM335 70c14 -4 29 -8 44 -8c55 0 79 31 115 135
l-188 513h85l108 -312c11 -31 27 -85 36 -118h2c10 33 26 88 37 118l107 312h79l-180 -500c-58 -159 -101 -210 -195 -210c-16 0 -36 1 -55 8z" />
    <glyph glyph-name="uni24B5" unicode="&#x24b5;" 
d="M186 -100c-104 122 -164 288 -164 480s60 359 164 480l17 -13c-84 -120 -126 -277 -126 -467s42 -346 126 -467zM797 -87c84 120 126 277 126 467s-42 346 -126 467l17 13c104 -122 164 -288 164 -480s-60 -359 -164 -480zM311 140v68c222 274 279 344 300 365h-286v61
h371v-69c-197 -243 -272 -333 -298 -362h305v-63h-392z" />
    <glyph glyph-name="Japan1.8184" 
d="M224 -39l467 818h61l-467 -818h-61zM200 287v235c0 46 1 109 5 145h-1c-14 -13 -45 -43 -78 -71l-37 46l120 98h63v-453h-72zM606 -16v63c131 113 209 197 209 267c0 46 -33 70 -82 70c-33 0 -68 -11 -104 -30l-10 61c37 17 80 28 126 28c86 0 145 -44 145 -123
c0 -61 -31 -116 -119 -205c-35 -35 -61 -55 -88 -74v-2c48 2 111 2 143 2h76v-57h-296z" />
    <glyph glyph-name="Japan1.8185" 
d="M229 -39l467 818h62l-468 -818h-61zM206 287v235c0 46 1 109 5 145h-2c-13 -13 -44 -43 -78 -71l-37 46l120 98h64v-453h-72zM810 -16v98h-213v61l183 294h96v-300h62v-55h-62v-98h-66zM810 247c0 39 0 97 2 141h-2c-11 -21 -39 -72 -65 -116l-85 -135h150v110z" />
    <glyph glyph-name="uni24EA" unicode="&#x24ea;" 
d="M500 -90c-260 0 -470 210 -470 470s210 470 470 470c259 0 470 -210 470 -470s-211 -470 -470 -470zM935 380c0 241 -194 436 -435 436s-436 -195 -436 -436s195 -436 436 -436s435 195 435 436zM502 78c-143 0 -201 126 -201 302c0 192 68 300 203 300
c131 0 200 -107 200 -303c0 -172 -59 -299 -202 -299zM503 144c75 0 117 80 117 236c0 155 -43 235 -118 235c-76 0 -118 -81 -118 -235c0 -157 42 -236 119 -236z" />
    <glyph glyph-name="uni216A" unicode="&#x216a;" 
d="M578 -16l-126 199c-27 42 -61 95 -83 133c-23 -38 -57 -92 -82 -131l-126 -201h-100l257 393l-238 361h103l111 -175c18 -29 60 -94 81 -128c20 34 62 100 79 128l108 175h97l-233 -361l258 -393h-106zM783 -16v754h89v-754h-89z" />
    <glyph glyph-name="uni216B" unicode="&#x216b;" 
d="M410 -16l-67 166c-23 56 -50 122 -67 168c-17 -42 -43 -109 -65 -163l-71 -171h-91l164 392l-147 362h94l54 -129c22 -56 48 -123 65 -172c17 49 45 120 67 171l55 130h90l-151 -355l166 -399h-96zM588 -16v754h88v-754h-88zM813 -16v754h89v-754h-89z" />
    <glyph glyph-name="Japan1.8227" 
d="M186 -100c-104 122 -164 288 -164 480s60 359 164 480l17 -13c-84 -120 -126 -277 -126 -467s42 -346 126 -467zM797 -87c84 120 126 277 126 467s-42 346 -126 467l17 13c104 -122 164 -288 164 -480s-60 -359 -164 -480zM507 -11c-183 0 -253 169 -253 392
c0 245 87 387 256 387c164 0 250 -140 250 -394c0 -214 -71 -384 -253 -385zM509 65c102 0 159 108 159 316c0 203 -59 312 -161 312s-161 -110 -161 -312c0 -209 59 -316 163 -316z" />
    <glyph glyph-name="Japan1.8228" 
d="M753 356c0 -215 -72 -385 -254 -385c-183 0 -253 169 -253 392c0 245 88 387 256 387c165 0 251 -141 251 -394zM339 362c0 -103 14 -181 43 -233l199 515c-22 20 -50 31 -81 31c-102 0 -161 -110 -161 -313zM661 362c0 100 -15 177 -43 230l-200 -515
c23 -20 52 -31 84 -31c102 0 159 109 159 316z" />
    <glyph glyph-name="uni2776" unicode="&#x2776;" 
d="M500 -90c-260 0 -470 210 -470 470s210 470 470 470c259 0 470 -210 470 -470s-211 -470 -470 -470zM554 670h-75l-147 -118l43 -55l30 25c28 23 51 44 69 61h1c-1 -38 -3 -114 -3 -168v-327h82v582z" />
    <glyph glyph-name="uni2777" unicode="&#x2777;" 
d="M500 -90c-259 0 -470 210 -470 470s211 470 470 470s470 -210 470 -470s-211 -470 -470 -470zM694 155h-136c-44 0 -109 -1 -154 -3v3c35 25 76 56 126 105c107 104 153 178 153 257c0 107 -78 163 -187 163c-59 0 -114 -13 -160 -35l10 -73c46 28 92 41 134 41
c68 0 116 -32 116 -103c0 -90 -83 -185 -276 -346v-76h374v67z" />
    <glyph glyph-name="uni2778" unicode="&#x2778;" 
d="M500 -90c-260 0 -470 210 -470 470s210 470 470 470c259 0 470 -210 470 -470s-211 -470 -470 -470zM703 247c0 86 -66 137 -151 144v2c84 8 145 56 145 136c0 95 -77 151 -196 151c-49 0 -99 -8 -147 -26l6 -68c47 21 88 30 132 30c70 0 125 -31 125 -95
c0 -69 -67 -100 -173 -100h-28v-64c8 1 21 1 29 1c112 0 174 -33 174 -105c0 -77 -63 -111 -140 -111c-45 0 -87 9 -139 31l-5 -72c49 -16 99 -23 146 -23c133 0 222 65 222 169z" />
    <glyph glyph-name="uni2779" unicode="&#x2779;" 
d="M500 -90c-260 0 -470 210 -470 470s210 470 470 470c259 0 470 -210 470 -470s-211 -470 -470 -470zM612 218h81v65h-81v387h-107l-248 -385v-67h277v-130h78v130zM334 283l126 198c24 39 58 98 77 132h1c-3 -65 -4 -129 -4 -179v-151h-200z" />
    <glyph glyph-name="uni277A" unicode="&#x277a;" 
d="M500 -90c-260 0 -470 210 -470 470s210 470 470 470c259 0 470 -210 470 -470s-211 -470 -470 -470zM700 274c0 110 -81 178 -200 178c-28 0 -50 -2 -75 -9l6 161h246v65h-320l-5 -301c38 13 79 21 118 21c92 0 147 -41 147 -120c0 -80 -61 -126 -148 -126
c-39 0 -82 8 -122 26l-3 -72c42 -13 88 -19 129 -19c139 0 227 77 227 196z" />
    <glyph glyph-name="uni277B" unicode="&#x277b;" 
d="M500 -90c-260 0 -470 210 -470 470s210 470 470 470c259 0 470 -210 470 -470s-211 -470 -470 -470zM657 663c-35 12 -73 17 -113 17c-166 0 -251 -129 -251 -327c0 -174 68 -275 203 -275c121 0 195 86 195 197c0 106 -67 182 -174 182c-57 0 -115 -26 -144 -74h-2
c4 140 64 233 177 233c34 0 66 -6 101 -20zM495 139c-66 0 -114 60 -114 135c0 70 54 122 116 122c76 0 113 -53 113 -128c0 -73 -44 -129 -115 -129z" />
    <glyph glyph-name="uni277C" unicode="&#x277c;" 
d="M500 -90c-260 0 -470 210 -470 470s210 470 470 470c259 0 470 -210 470 -470s-211 -470 -470 -470zM699 600v70h-371v-68h288l-225 -514h90z" />
    <glyph glyph-name="uni277D" unicode="&#x277d;" 
d="M500 -90c-260 0 -470 210 -470 470s210 470 470 470c259 0 470 -210 470 -470s-211 -470 -470 -470zM571 396c78 32 118 75 118 141c0 89 -76 143 -184 143c-115 0 -193 -58 -193 -148c0 -65 35 -106 120 -139c-88 -34 -134 -81 -134 -155c0 -102 82 -159 202 -159
c119 0 208 61 208 164c0 74 -43 120 -137 153zM510 423c-70 24 -117 50 -117 110c0 55 51 88 109 88c60 0 104 -32 104 -90c0 -52 -33 -83 -96 -108zM493 361c87 -28 131 -62 131 -120c0 -63 -55 -100 -123 -100c-70 0 -120 36 -120 101c0 57 38 95 112 119z" />
    <glyph glyph-name="uni277E" unicode="&#x277e;" 
d="M500 -90c-260 0 -470 210 -470 470s210 470 470 470c259 0 470 -210 470 -470s-211 -470 -470 -470zM639 380c-2 -140 -61 -236 -176 -236c-36 0 -71 7 -107 23l-9 -68c38 -13 78 -19 120 -19c167 0 251 131 251 329c0 174 -68 271 -203 271c-121 0 -193 -85 -193 -197
c0 -105 65 -177 173 -177c57 0 114 25 142 74h2zM629 487c0 -70 -49 -120 -113 -120c-73 0 -113 49 -113 123s44 130 115 130c65 0 111 -57 111 -133z" />
    <glyph glyph-name="Japan1.8295" 
d="M367 -16l-65 166c-21 56 -48 123 -64 168c-16 -41 -41 -109 -62 -163l-69 -171h-84l158 392l-143 362h89l52 -129c21 -56 46 -124 62 -173c16 49 43 121 64 172l52 130h86l-146 -355l160 -399h-90zM503 -16v754h83v-754h-83zM674 -16v754h84v-754h-84zM846 -16v754h84
v-754h-84z" />
    <glyph glyph-name="Japan1.8296" 
d="M351 -16l-61 166c-20 56 -45 123 -61 168c-15 -41 -39 -109 -59 -163l-64 -171h-80l150 392l-135 362h83l49 -129c20 -56 43 -124 59 -173c16 49 43 121 61 172l49 130h80l-138 -355l151 -399h-84zM472 -16v754h78v-754h-78zM733 -16l-144 754h78l92 -481
c9 -48 20 -135 24 -170h2c5 37 16 122 25 170l89 481h82l-147 -754h-101z" />
    <glyph glyph-name="Japan1.8297" 
d="M400 -16l-67 166c-22 56 -50 122 -67 168c-17 -42 -43 -109 -65 -163l-71 -171h-90l164 392l-148 362h94l54 -129c23 -56 48 -123 65 -172c17 49 46 120 67 171l55 130h90l-150 -355l165 -399h-96zM683 -16l-164 754h89l105 -481c10 -48 23 -135 27 -170h2
c5 37 19 122 28 170l101 481h91l-165 -754h-114z" />
    <glyph glyph-name="uni217A" unicode="&#x217a;" 
d="M737 645v101h99v-101h-99zM521 -16l-80 129c-15 22 -50 80 -65 109h-1c-16 -27 -50 -82 -67 -109l-80 -129h-102l198 288l-182 262h105l74 -118c13 -21 39 -65 58 -100h1c18 32 47 81 59 100l72 118h97l-177 -262l194 -288h-104zM743 -16v550h87v-550h-87z" />
    <glyph glyph-name="uni217B" unicode="&#x217b;" 
d="M564 651v94h93v-94h-93zM791 651v94h93v-94h-93zM377 -16l-56 106c-16 32 -42 90 -57 126h-1c-16 -37 -44 -97 -57 -123l-58 -109h-89l150 284l-138 266h95l61 -120c11 -24 30 -68 41 -93h1c10 23 32 69 43 93l61 120h89l-139 -269l149 -281h-95zM568 -16v550h85v-550
h-85zM795 -16v550h85v-550h-85z" />
    <glyph glyph-name="Japan1.8300" 
d="M473 651v94h89v-94h-89zM653 651v94h89v-94h-89zM833 651v94h89v-94h-89zM330 -16l-50 105c-15 33 -40 91 -53 126h-1c-15 -36 -42 -96 -54 -122l-52 -109h-86l139 284l-127 266h90l56 -120c11 -24 29 -70 38 -93h1c9 24 30 70 40 93l55 120h86l-129 -269l138 -281h-91z
M477 -16v550h81v-550h-81zM657 -16v550h81v-550h-81zM837 -16v550h81v-550h-81z" />
    <glyph glyph-name="Japan1.8301" 
d="M452 651v94h86v-94h-86zM318 -16l-48 105c-14 33 -38 91 -51 126h-1c-14 -36 -41 -96 -52 -122l-51 -109h-82l135 284l-125 266h88l53 -120c12 -24 29 -70 38 -93h1c9 24 28 70 39 93l53 120h83l-126 -269l135 -281h-89zM456 -16v550h78v-550h-78zM733 -16l-148 550h81
l86 -332l28 -121h2c5 35 19 90 26 121l85 332h79l-150 -550h-89z" />
    <glyph glyph-name="Japan1.8302" 
d="M379 -16l-55 106c-16 32 -42 90 -57 126h-1c-16 -37 -45 -97 -58 -123l-57 -109h-89l149 284l-137 266h95l60 -120c12 -24 30 -68 42 -93h1c10 23 31 69 43 93l60 120h90l-140 -269l149 -281h-95zM680 -16l-166 550h88l96 -331c10 -35 23 -88 31 -123h2
c7 35 22 92 30 123l95 331h86l-167 -550h-95z" />
  </font>
</defs>
</svg>
